<?xml version="1.0" standalone="no"?>
<!DOCTYPE svg PUBLIC "-//W3C//DTD SVG 1.1//EN" "http://www.w3.org/Graphics/SVG/1.1/DTD/svg11.dtd" >
<svg xmlns="http://www.w3.org/2000/svg">
<metadata>
Created by FontPrep 20130207 at Thu Nov 12 17:46:10 2015
 By Zachary Dahan
Copyright (c) 2009 by Hannes von Doehren. All rights reserved.
</metadata>
<defs>
<font id="354fd4633228a7e3ae69c73de8c58871" horiz-adv-x='1024' >
  <font-face 
    font-family="BrandonGrotesque-Light"
    font-weight="330"
    font-stretch="normal"
    units-per-em="2048"
    panose-1="2 11 3 3 2 2 3 6 2 2"
    ascent="1434"
    descent="-614"
    x-height="819"
    cap-height="1434"
    bbox="-294 -635 1905 1980"
    underline-thickness="102"
    underline-position="-102"
    unicode-range="U+000D-FB04"
  />
<missing-glyph horiz-adv-x="748" 
d="M136 68h408v1229h-408v-1229zM68 0v1365h544v-1365h-544z" />
    <glyph glyph-name="uniFB01" unicode="fi" horiz-adv-x="1058" 
d="M49 793q0 26 27 26h133v273q0 116 70.5 239t265.5 123q100 0 179.5 -36.5t119.5 -74.5q14 -10 2 -30l-23 -33q-11 -16 -32 -2q-2 1 -18.5 12.5t-25.5 17.5t-58 35t-148 29q-98 0 -171 -73.5t-73 -206.5v-273h580q11 0 18.5 -7.5t7.5 -18.5v-766q0 -12 -9 -19.5t-20 -7.5
h-34q-10 0 -18.5 8t-8.5 19v712h-516v-712q0 -11 -8.5 -19t-18.5 -8h-34q-10 0 -18.5 8t-8.5 19v712h-133q-27 0 -27 31v23z" />
    <glyph glyph-name="uniFB02" unicode="fl" horiz-adv-x="1069" 
d="M76 739q-27 0 -27 27v27q0 10 8 18t19 8h135v283q0 116 69 234t265 118q72 0 151.5 -29t132.5 -82l9 66q7 25 34 25h15q10 0 18 -8t8 -19v-1380q0 -12 -8.5 -19.5t-19.5 -7.5h-35q-10 0 -18.5 8t-8.5 19v1212q-127 127 -272 127q-99 0 -175.5 -64t-76.5 -200v-283h303
q27 0 27 -24v-31q0 -25 -27 -25h-303v-712q0 -11 -8.5 -19t-18.5 -8h-36q-10 0 -17.5 8t-7.5 19v712h-135z" />
    <glyph glyph-name=".notdef" horiz-adv-x="748" 
d="M136 68h408v1229h-408v-1229zM68 0v1365h544v-1365h-544z" />
    <glyph glyph-name="glyph1" horiz-adv-x="2048" 
 />
    <glyph glyph-name="glyph1" horiz-adv-x="2048" 
 />
    <glyph glyph-name="uni000D" unicode="&#xd;" horiz-adv-x="2048" 
 />
    <glyph glyph-name="space" unicode=" " horiz-adv-x="444" 
 />
    <glyph glyph-name="exclam" unicode="!" horiz-adv-x="606" 
d="M248 1407q0 27 31 27h51q10 0 18 -8t8 -19v-248l-18 -584q0 -9 -9 -16.5t-18 -7.5h-16q-10 0 -18.5 7.5t-8.5 16.5l-20 582v250zM219 62q0 34 25.5 57.5t59.5 23.5t57.5 -23.5t23.5 -57.5t-23.5 -58t-57.5 -24t-59.5 24t-25.5 58z" />
    <glyph glyph-name="quotedbl" unicode="&#x22;" horiz-adv-x="612" 
d="M492 1434q26 0 24 -33l-33 -363q-4 -22 -20 -22h-23q-18 0 -18 22v369q0 11 8 19t19 8h43zM184 1434q27 0 25 -33l-33 -363q-4 -22 -20 -22h-23q-18 0 -18 22v369q0 11 8 19t18 8h43z" />
    <glyph glyph-name="numbersign" unicode="#" horiz-adv-x="1126" 
d="M365 485h333l62 373h-332zM1028 885q0 -27 -22 -27h-181l-63 -373h182q11 0 19 -8t8 -18v-10q0 -11 -7.5 -19t-17.5 -8h-194l-68 -399q-1 -9 -9.5 -16t-17.5 -7h-12q-29 0 -24 31l67 391h-336l-65 -399q-1 -9 -9.5 -16t-17.5 -7h-12q-30 0 -25 31l68 391h-172
q-10 0 -17.5 8t-7.5 19v10q0 11 7.5 18.5t17.5 7.5h180l63 373h-184q-10 0 -18 8t-8 19v12q0 11 8 19t18 8h195l82 487q3 23 26 23h13q27 0 22 -31l-80 -479h334l82 487q3 23 27 23h14q24 0 20 -31l-79 -479h170q10 0 17 -8t7 -19v-12z" />
    <glyph glyph-name="dollar" unicode="$" horiz-adv-x="1091" 
d="M905 344q0 111 -78 181.5t-239 129.5v-587q131 8 224 86.5t93 189.5zM207 1086q0 -114 83 -182t236 -120v580q-232 -11 -275.5 -118t-43.5 -160zM588 -242q0 -24 -31 -24t-31 24v222q-219 12 -401 167q-23 19 -6 43l22 29q17 21 52 -6q151 -133 333 -145v614
q-201 66 -307 152t-106 258q0 120 70 201.5t153 117.5t190 41v76q0 26 29 26h8q27 0 27 -26v-78q105 -6 189.5 -39.5t127.5 -62.5q25 -20 11 -41l-21 -31q-15 -22 -37 -10t-46.5 26.5t-92.5 39.5t-131 30l-2 -602q201 -69 309.5 -162t108.5 -247t-123.5 -258t-294.5 -113
v-222z" />
    <glyph glyph-name="percent" unicode="%" horiz-adv-x="1409" 
d="M801 260q0 -86 60.5 -145.5t146.5 -59.5t145 59.5t59 145.5t-59 145.5t-145 59.5t-146.5 -59.5t-60.5 -145.5zM725 261q0 118 82.5 201t200.5 83t200 -83.5t82 -201.5t-82 -200.5t-200 -82.5t-200.5 83t-82.5 201zM1049 1434h36q13 0 19 -13t-2 -26l-780 -1381
q-7 -14 -25 -14h-37q-13 0 -17.5 11.5t3.5 23.5l778 1388q7 11 25 11zM162 1170q0 -86 59 -145.5t145 -59.5t145.5 59.5t59.5 145.5t-59.5 146t-145.5 60t-145 -60t-59 -146zM84 1171q0 118 83 200.5t200 82.5t199.5 -82.5t82.5 -200.5t-82.5 -200t-199.5 -82t-200 82
t-83 200z" />
    <glyph glyph-name="ampersand" unicode="&#x26;" horiz-adv-x="1388" 
d="M872 1143q0 94 -65 162.5t-185 68.5t-187.5 -72t-67.5 -167q-2 -116 139 -261q9 -8 18.5 -18t12.5 -13l28 -28q307 154 307 328zM274 354q0 -124 85 -208.5t213 -84.5q250 0 417 203l-444 451q-271 -147 -271 -361zM184 354q0 253 303 416l-30 33q-139 151 -175.5 279.5
t43 220.5t149.5 121.5t157 29.5q156 0 244 -90.5t88 -218.5q0 -166 -136 -260.5t-202 -128.5l417 -414q123 197 123 418l-2 41q0 18 17 18h43q28 0 28 -59q0 -251 -147 -477l213 -211q31 -27 8 -47l-33 -31q-18 -18 -41 4l-204 207q-193 -225 -474 -225q-178 0 -283.5 108.5
t-105.5 265.5z" />
    <glyph glyph-name="quotesingle" unicode="'" horiz-adv-x="305" 
d="M184 1434q27 0 25 -33l-33 -363q-4 -22 -20 -22h-23q-18 0 -18 22v369q0 11 8 19t18 8h43z" />
    <glyph glyph-name="parenleft" unicode="(" horiz-adv-x="704" 
d="M295 0.5q-166 154.5 -166 643.5t165.5 644.5t323.5 163.5q25 0 25 -18l2 -31q2 -25 -16 -25q-191 -26 -300.5 -204.5t-109.5 -528.5t109.5 -528.5t300.5 -204.5q18 0 16 -25l-2 -30q0 -22 -25 -17q-157 6 -323 160.5z" />
    <glyph glyph-name="parenright" unicode=")" horiz-adv-x="704" 
d="M485 645q0 351 -108 529t-299 204q-9 0 -14.5 7.5t-4.5 17.5l2 31q3 18 27 18q252 -13 369.5 -238.5t117.5 -641.5t-165 -571t-322 -161q-24 -3 -27 17l-2 30q-1 10 4.5 17.5t14.5 7.5q191 26 299 204t108 529z" />
    <glyph glyph-name="asterisk" unicode="*" horiz-adv-x="696" 
d="M340 1434h16q10 0 18.5 -8t8.5 -19l-2 -211l180 115q20 11 35 -8l10 -17q11 -22 -8 -35l-188 -114l190 -115q7 -4 10 -15t-2 -18l-10 -18q-15 -23 -37 -8l-180 114l2 -211q0 -10 -8 -18t-19 -8h-16q-11 0 -19 8t-8 18l2 211l-180 -112q-21 -14 -35 8q-23 38 -2 51
l187 113l-189 112q-18 12 -8 35l12 21q10 17 33 4l182 -113l-2 211q0 11 8.5 19t18.5 8z" />
    <glyph glyph-name="plus" unicode="+" horiz-adv-x="1034" 
d="M96 694v31q0 11 8 19t19 8h352v354q0 10 8 17t19 7h33q11 0 18.5 -7t7.5 -17v-354h350q11 0 19 -8t8 -19v-31q0 -10 -8 -18t-19 -8h-350v-351q0 -11 -7.5 -18.5t-18.5 -7.5h-33q-11 0 -19 8t-8 18v351h-352q-11 0 -19 8t-8 18z" />
    <glyph glyph-name="comma" unicode="," horiz-adv-x="473" 
d="M145 62q0 35 23.5 57t67.5 22t77 -48.5t33 -124.5q0 -135 -53.5 -207t-85.5 -92q-32 -19 -43 -5l-17 21q-13 16 9 32q1 0 3 2q100 75 111 193q3 46 -10 78q-17 -10 -44 -10t-49 23.5t-22 58.5z" />
    <glyph glyph-name="hyphen" unicode="-" horiz-adv-x="978" 
d="M233 522q0 27 25 27h463q11 0 19 -7.5t8 -19.5v-22q0 -10 -8 -18.5t-19 -8.5h-463q-10 0 -17.5 8t-7.5 19v22z" />
    <glyph glyph-name="period" unicode="." horiz-adv-x="456" 
d="M145 62q0 34 25.5 57.5t59.5 23.5t57.5 -23.5t23.5 -57.5t-23.5 -58t-57.5 -24t-59.5 24t-25.5 58z" />
    <glyph glyph-name="slash" unicode="/" horiz-adv-x="669" 
d="M563 1434h29q14 0 21 -8.5t3 -20.5l-452 -1387q-6 -18 -27 -18h-31q-13 0 -19.5 8t-2.5 21l453 1388q7 17 26 17z" />
    <glyph glyph-name="zero" unicode="0" horiz-adv-x="1318" 
d="M248 697q0 -302 107 -468t303 -166t303.5 165.5t107.5 467.5t-107.5 468.5t-303.5 166.5t-303 -166t-107 -468zM158 698q0 338 131.5 528.5t369.5 190.5t370 -190.5t132 -528.5t-132 -528t-370 -190t-369.5 190t-131.5 528z" />
    <glyph glyph-name="one" unicode="1" horiz-adv-x="659" 
d="M403 1395q31 0 31 -25v-1343q0 -11 -8 -19t-18 -8h-41q-11 0 -19 8t-8 19v1230l-244 -200q-17 -14 -30 2l-25 28q-14 17 4 31l328 277h30z" />
    <glyph glyph-name="two" unicode="2" horiz-adv-x="1073" 
d="M82 25v36l543 545q227 227 227 406q0 123 -86.5 219t-257.5 96q-80 0 -124 -21t-67.5 -34.5t-45 -33.5t-33 -31t-26 -28t-15.5 -18q-19 -22 -41 -6l-25 21q-17 16 -8 30t19 28t46 49t76.5 61.5t106.5 48.5t137 22q207 0 323.5 -116t116.5 -285q0 -124 -65.5 -231
t-192.5 -234l-467 -465h688q11 0 19 -8t8 -19v-30q0 -11 -8 -19t-19 -8h-802q-11 0 -19 8t-8 17z" />
    <glyph glyph-name="three" unicode="3" horiz-adv-x="1118" 
d="M328 668q-27 0 -27 26v37q0 25 29 25h188q122 0 196.5 48t105 105t30.5 131q0 127 -89.5 208t-221.5 81q-193 0 -322 -151q-16 -20 -35 -4l-30 24q-9 6 -9.5 17t7.5 18q100 117 210 149.5t179 32.5q178 0 292.5 -101t114.5 -263q0 -114 -69 -204.5t-162 -125.5v-4
q106 -33 187 -129t81 -213q0 -172 -126.5 -283.5t-348.5 -111.5t-316 93.5t-94 105.5t8 18l33 26q17 14 37 -6q1 -1 26 -26.5t62 -54.5t102 -52t158 -23q160 0 261.5 85t101.5 223q0 167 -128 233t-241 66h-190z" />
    <glyph glyph-name="four" unicode="4" horiz-adv-x="1193" 
d="M842 401v852l-697 -852h697zM1085 399q11 0 19 -7t8 -17v-27q0 -10 -8 -18t-19 -8h-155v-295q0 -11 -8 -19t-15 -8t-15 -0.5t-13 0t-23 2t-18 25.5v292h-772q-35 0 -35 31v35l837 1032h37q23 0 23 -22l2 -996h155z" />
    <glyph glyph-name="five" unicode="5" horiz-adv-x="1116" 
d="M545 63q167 0 276 115.5t109 273.5t-98.5 248.5t-286.5 90.5h-340q-18 0 -28.5 13.5t-10.5 29.5v534q0 11 7.5 19t19.5 8h643q10 0 18 -8t8 -19v-33q0 -11 -8 -18.5t-18 -7.5h-584v-432h293q233 0 356 -111t123 -315q0 -128 -61 -235.5t-172 -171.5t-248 -64
q-254 0 -398 172q-21 26 -9 38q12 11 21.5 20t14.5 13q20 17 35 -4q127 -156 338 -156z" />
    <glyph glyph-name="six" unicode="6" horiz-adv-x="1134" 
d="M207 512q0 -58 25 -144.5t72 -155.5t123 -110t171 -41q150 0 258.5 114.5t108.5 272.5t-106.5 262.5t-271.5 104.5t-256 -84t-100 -95.5t-20 -25.5q-4 -40 -4 -98zM119 558q0 120 28 225.5t72.5 185.5t128.5 177.5t210 176t230 119.5q24 7 31 -15l15 -30q10 -27 -28 -41
t-95.5 -43t-137 -85.5t-147 -124t-124 -166t-75.5 -204.5q34 45 136 105.5t233 60.5q132 0 232.5 -54t163.5 -157.5t63 -233.5t-62 -239t-167.5 -172t-225.5 -63t-211.5 45t-150 124.5t-89 184t-30.5 224.5z" />
    <glyph glyph-name="seven" unicode="7" horiz-adv-x="968" 
d="M41 1368q0 27 27 27h847q13 0 21 -7.5t8 -17.5v-10l-602 -1327q-9 -21 -15.5 -27t-23.5 -6h-49q-14 0 -17 12t3 21l583 1276h-755q-27 0 -27 28v31z" />
    <glyph glyph-name="eight" unicode="8" horiz-adv-x="1175" 
d="M258 1042q0 -122 88 -195.5t242 -84.5q153 11 241.5 84.5t88.5 195.5t-90 206.5t-244 84.5t-240 -84.5t-86 -206.5zM223 371q0 -109 73 -211.5t288 -102.5q163 0 265.5 77.5t102.5 209.5t-99.5 218.5t-264.5 99.5q-168 -13 -266.5 -97.5t-98.5 -193.5zM129 367
q0 128 89 221.5t218 124.5v4q-114 33 -192 119.5t-78 203.5q0 159 110 265t308 106t312 -106t114 -265q0 -117 -78.5 -203.5t-192.5 -119.5v-4q130 -31 219 -123t89 -223q0 -180 -127.5 -283.5t-333.5 -103.5t-331.5 103.5t-125.5 283.5z" />
    <glyph glyph-name="nine" unicode="9" horiz-adv-x="1132" 
d="M170 956q0 -158 105.5 -262t254.5 -104q184 0 276.5 87t115.5 118q4 41 4 89t-23.5 157.5t-118 205.5t-247.5 96q-152 0 -259.5 -114.5t-107.5 -272.5zM80 952q0 130 62 238.5t167.5 171.5t243.5 63t300.5 -116t162.5 -451t-195.5 -560t-476.5 -335q-21 -7 -31 14l-12 31
q-11 28 27 41t95.5 42.5t137 86t147 124t123.5 166t74 204.5q-33 -44 -134.5 -105t-232.5 -61t-232 54t-163.5 158t-62.5 234z" />
    <glyph glyph-name="colon" unicode=":" horiz-adv-x="538" 
d="M186 758q0 34 25 58t59 24t58 -24.5t24 -58.5t-24 -58.5t-58 -24.5t-59 25t-25 59zM186 62q0 34 25 57.5t59 23.5t58 -23.5t24 -57.5t-24 -58t-58 -24t-59 24t-25 58z" />
    <glyph glyph-name="semicolon" unicode=";" horiz-adv-x="546" 
d="M186 757q0 34 24 58.5t58 24.5t58 -24.5t24 -58.5t-23.5 -58.5t-57.5 -24.5t-58.5 24.5t-24.5 58.5zM186 62q0 35 23 57t67 22t77.5 -48.5t33.5 -124.5q0 -135 -53.5 -207t-85.5 -92q-32 -19 -43 -5l-17 21q-13 16 9 32q1 0 3 2q100 75 111 193q3 46 -10 78
q-17 -10 -44 -10t-49 23.5t-22 58.5z" />
    <glyph glyph-name="less" unicode="&#x3c;" horiz-adv-x="886" 
d="M53 473v2q0 16 21 29l723 459q11 8 19 2t9 -23v-47q0 -22 -16 -31l-623 -391l623 -379q16 -9 16 -31v-47q-1 -16 -9 -22t-19 2l-723 444q-21 13 -21 33z" />
    <glyph glyph-name="equal" unicode="=" horiz-adv-x="1148" 
d="M225 776v35q0 27 27 27h645q11 0 19 -8t8 -19v-35q0 -10 -8 -18t-19 -8h-645q-27 0 -27 26zM225 350v35q0 27 27 27h645q11 0 19 -8t8 -19v-35q0 -10 -8 -18t-19 -8h-645q-27 0 -27 26z" />
    <glyph glyph-name="greater" unicode="&#x3e;" horiz-adv-x="886" 
d="M61 16v47q0 21 17 31l622 379l-622 391q-17 10 -17 31v47q-1 17 9 23t20 -2l723 -459q21 -13 21 -29v-2q0 -20 -21 -33l-723 -444q-10 -8 -20 -2t-9 22z" />
    <glyph glyph-name="question" unicode="?" horiz-adv-x="960" 
d="M352 62q0 34 24 57.5t58 23.5t59 -23.5t25 -57.5t-25 -58t-59 -24t-58 24t-24 58zM732.5 1373.5q92.5 -80.5 92.5 -207.5t-80.5 -201t-146.5 -118t-91.5 -76.5t-25.5 -65.5v-117q0 -29 -26 -29h-39q-25 0 -25 29v119q0 78 49 123.5t119.5 97.5t122 101t51.5 132
t-68.5 147t-165.5 64t-140.5 -18.5t-66 -31t-41.5 -29t-30 -27t-22.5 -23.5t-12.5 -14q-15 -15 -34 -2l-21 14q-22 15 -6 39q49 68 139.5 121t233.5 53q142 0 234.5 -80.5z" />
    <glyph glyph-name="at" unicode="@" horiz-adv-x="2027" 
d="M672 413q0 -154 83.5 -250.5t216.5 -96.5t190.5 73t70.5 115v387q-8 15 -67 66t-185 51t-217.5 -95.5t-91.5 -249.5zM98 486q0 190 67 374t188 315t298 205t383 74t370.5 -65t332.5 -243t168 -537t-129.5 -494t-290.5 -135q-96 0 -154 44.5t-76 116.5
q-32 -50 -104 -105.5t-188 -55.5q-166 0 -272.5 122t-106.5 312t116 308t285 118q92 0 157.5 -30.5t94.5 -59.5l6 45q3 24 29 24h20q11 0 19 -8t8 -18v-514q0 -224 170 -224q83 0 148 43t125.5 156.5t60.5 309.5q0 197 -52 340.5t-149.5 249t-247.5 165t-336 59.5
q-259 0 -454 -114t-299.5 -322t-104.5 -494t155.5 -503.5t416.5 -329.5q22 -10 12 -33l-14 -33q-9 -21 -29 -12q-276 117 -449.5 355t-173.5 594z" />
    <glyph glyph-name="A" unicode="A" horiz-adv-x="1337" 
d="M313 475h711l-350 825h-4zM668 1464h6q19 0 26 -14l625 -1425q2 -6 2 -10q0 -15 -20 -15h-54q-19 0 -28 18l-166 377h-783l-163 -377q-9 -18 -29 -18h-57q-17 0 -17 13q0 5 2 12l631 1425q7 14 25 14z" />
    <glyph glyph-name="B" unicode="B" horiz-adv-x="1275" 
d="M313 770h381q142 0 223.5 80t81.5 211t-85.5 206.5t-233.5 75.5h-367v-573zM311 86h396q149 0 243 85t94 219t-99.5 213t-250.5 79h-383v-596zM217 27v1380q0 11 8.5 19t18.5 8h436q190 0 307 -101.5t117 -269.5q0 -117 -62.5 -204.5t-162.5 -127.5q119 -32 194.5 -117.5
t75.5 -224.5q0 -172 -126 -280.5t-325 -108.5h-454q-10 0 -18.5 8t-8.5 19z" />
    <glyph glyph-name="C" unicode="C" horiz-adv-x="1470" 
d="M115 714q0 152 58.5 289t157.5 235.5t236.5 157t288.5 58.5q289 0 498 -190q18 -18 2 -37l-33 -35q-17 -16 -35 2q-189 168 -432 168q-176 0 -323 -87.5t-231.5 -236t-84.5 -322.5t84.5 -322t231.5 -235t323 -87q225 0 432 172q18 15 33 4l35 -35q8 -6 8 -16.5t-8 -18.5
q-204 -198 -500 -198q-151 0 -288 57.5t-236.5 155t-158 233.5t-58.5 288z" />
    <glyph glyph-name="D" unicode="D" horiz-adv-x="1511" 
d="M313 88h346q177 0 322.5 82.5t229 227.5t83.5 320t-83.5 319t-229.5 226.5t-322 82.5h-346v-1258zM217 27v1380q0 10 8 18.5t17 8.5h434q146 0 279.5 -57t230 -153t154 -228t57.5 -277q0 -196 -97 -361.5t-263 -261.5t-361 -96h-434q-9 0 -17 8.5t-8 18.5z" />
    <glyph glyph-name="E" unicode="E" horiz-adv-x="1224" 
d="M217 27v1380q0 11 8.5 19t18.5 8h821q11 0 19 -8t8 -19v-35q0 -10 -8 -18t-19 -8h-750v-566h650q11 0 18.5 -8t7.5 -18v-35q0 -11 -8 -19t-18 -8h-650v-606h750q11 0 19 -8t8 -19v-32q0 -11 -8 -19t-19 -8h-821q-10 0 -18.5 8t-8.5 19z" />
    <glyph glyph-name="F" unicode="F" horiz-adv-x="1173" 
d="M991 646q0 -9 -26 -9h-650l-2 -610q0 -11 -9 -19t-23 -8h-37q-10 0 -18.5 8t-8.5 19v1380q0 11 8.5 19t18.5 8h821q11 0 19 -8t8 -19v-35q0 -10 -8 -18t-19 -8h-750v-623h650q10 0 18 -8.5t8 -18.5v-50z" />
    <glyph glyph-name="G" unicode="G" horiz-adv-x="1521" 
d="M903 639q0 25 27 25h420q10 0 18 -8t8 -17v-475q0 -32 -24 -50q-49 -34 -177.5 -84t-299.5 -50t-308 57.5t-236 155t-157.5 233.5t-58.5 288t58.5 289t157.5 236t236 157t289 58q287 0 496 -190q18 -18 5 -34q-13 -15 -33 -36t-38 -2q-187 172 -432 172
q-175 0 -321.5 -87t-231 -235t-84.5 -323t84.5 -323t231.5 -235t339 -87t294 51t114 61v385h-350q-16 0 -21.5 6t-5.5 21v41z" />
    <glyph glyph-name="H" unicode="H" horiz-adv-x="1546" 
d="M313 27q0 -27 -26 -27h-43q-10 0 -18.5 8t-8.5 19v1380q0 11 8.5 19t18.5 8h43q26 0 26 -27v-629h920v629q0 11 8.5 19t18.5 8h43q26 0 26 -27v-1380q0 -27 -26 -27h-43q-10 0 -18.5 8t-8.5 19v665h-920v-665z" />
    <glyph glyph-name="I" unicode="I" horiz-adv-x="532" 
d="M217 27v1380q0 11 8.5 19t18.5 8h45q10 0 18 -8t8 -19v-1380q0 -12 -8.5 -19.5t-19.5 -7.5h-43q-10 0 -18.5 8t-8.5 19z" />
    <glyph glyph-name="J" unicode="J" horiz-adv-x="800" 
d="M563 1407q0 27 29 27h41q10 0 18 -8t8 -19v-975q0 -214 -106.5 -333t-292.5 -119t-311 153q-6 9 -6 18t8 17l26 25q17 17 35 0q57 -57 89 -78q75 -49 163 -49q135 0 217 93.5t82 270.5v977z" />
    <glyph glyph-name="K" unicode="K" horiz-adv-x="1208" 
d="M244 0q-27 0 -27 27v1376q0 13 8.5 22t22.5 9h37q30 0 30 -31v-633l697 649q17 15 41 15h57q16 0 19 -13t-7 -22l-712 -662l735 -702q7 -5 7 -12q0 -23 -26 -23h-65q-25 0 -45 20l-701 680v-673q0 -27 -30 -27h-41z" />
    <glyph glyph-name="L" unicode="L" horiz-adv-x="1001" 
d="M993 23q0 -23 -26 -23h-723q-10 0 -18.5 8t-8.5 19v1380q0 11 8.5 19t18.5 8h45q9 0 16.5 -8.5t7.5 -18.5v-1321h654q17 0 21.5 -7t4.5 -20v-36z" />
    <glyph glyph-name="M" unicode="M" horiz-adv-x="1759" 
d="M412 1454h22q15 0 21 -14l422 -1258h4l424 1258q6 14 20 14h23q14 0 18 -14l291 -1413q1 -4 1 -8q0 -19 -24 -19h-49q-19 0 -24 23l-232 1200h-4l-414 -1227q-5 -16 -28 -16h-9q-21 0 -26 16l-414 1227h-4l-231 -1200q-5 -23 -25 -23h-49q-24 0 -24 19q0 4 1 8l291 1413
q3 14 19 14z" />
    <glyph glyph-name="N" unicode="N" horiz-adv-x="1579" 
d="M1362 6q0 -26 -33 -26h-26q-14 0 -992 1292h-2v-1245q0 -11 -8 -19t-18 -8h-39q-10 0 -18.5 8t-8.5 19v1400q0 12 9.5 19.5t21.5 7.5h35l983 -1280h2v1233q0 11 8 19t18 8h41q11 0 19 -8t8 -19v-1401z" />
    <glyph glyph-name="O" unicode="O" horiz-adv-x="1705" 
d="M205 715q0 -176 86.5 -324.5t235.5 -234.5t325 -86t325.5 86t236.5 234.5t87 324.5t-87 325.5t-236.5 236.5t-325.5 87t-325 -87t-235.5 -236.5t-86.5 -325.5zM115 714q0 152 58 289t156.5 236t234.5 157t288 58t289 -58t235.5 -157t156.5 -236t58 -289t-58 -288
t-156.5 -233.5t-235.5 -155t-289 -57.5t-288 57.5t-234.5 155t-156.5 233.5t-58 288z" />
    <glyph glyph-name="P" unicode="P" horiz-adv-x="1216" 
d="M313 604h367q152 0 261.5 109.5t109.5 261.5t-110 257t-263 105h-365v-733zM217 27v1380q0 11 8.5 19t18.5 8h440q125 0 231.5 -61.5t169 -167.5t62.5 -231t-62.5 -232t-168.5 -169.5t-230 -62.5h-373v-483q0 -11 -9 -19t-23 -8h-37q-10 0 -18.5 8t-8.5 19z" />
    <glyph glyph-name="Q" unicode="Q" horiz-adv-x="1708" 
d="M205 715q0 -176 86.5 -324.5t235.5 -234.5t325 -86t325.5 86t236.5 234.5t87 324.5t-87 325.5t-236.5 236.5t-325.5 87t-325 -87t-235.5 -236.5t-86.5 -325.5zM115 714q0 152 58 289t156.5 236t234.5 157t288 58t289 -58t235.5 -157t156.5 -236t58 -288q0 -231 -127 -415
t-334 -267l244 -398q5 -7 1 -18.5t-15 -11.5h-68q-14 0 -26 20l-228 377q-90 -22 -214 -22t-260 57.5t-234.5 155t-156.5 233.5t-58 288z" />
    <glyph glyph-name="R" unicode="R" horiz-adv-x="1331" 
d="M315 639h433q149 0 255.5 102.5t106.5 250.5t-107 247.5t-258 99.5h-430v-700zM217 27v1380q0 11 7.5 19t19.5 8h508q189 0 322.5 -126t133.5 -296t-94.5 -286.5t-243.5 -158.5l299 -530q8 -12 4 -24.5t-18 -12.5h-63q-20 0 -29 18l-297 537q-27 -2 -76 -2h-377v-526
q0 -11 -9 -19t-23 -8h-37q-10 0 -18.5 8t-8.5 19z" />
    <glyph glyph-name="S" unicode="S" horiz-adv-x="1112" 
d="M125 1082q0 180 130 276t312 96q187 0 353 -104q22 -18 10 -38t-25 -38q-13 -20 -30 -10t-44.5 28t-104.5 46t-164 28t-156.5 -25.5t-128 -88t-58.5 -173.5t86.5 -179t216.5 -112q129 -43 238.5 -90.5t183.5 -132.5t74 -203t-62.5 -202.5t-165 -132t-195.5 -47.5
t-183.5 21t-189 82.5t-98.5 87.5q0 9 7 19l19 25q24 27 42 11t52.5 -45t126 -72t217.5 -43q125 0 227.5 81t102.5 204t-103 197.5t-323 151.5q-220 76 -293.5 168t-73.5 214z" />
    <glyph glyph-name="T" unicode="T" horiz-adv-x="966" 
d="M950 1372q0 -26 -26 -26h-394v-1319q0 -11 -9 -19t-23 -8h-37q-11 0 -19 8t-8 19v1319h-391q-27 0 -27 30v31q0 12 8 19.5t19 7.5h881q26 0 26 -27v-35z" />
    <glyph glyph-name="U" unicode="U" horiz-adv-x="1474" 
d="M201 522v885q0 11 8 19t18 8h43q10 0 18.5 -8t8.5 -19v-875q0 -202 118.5 -330t320.5 -128t322 127.5t120 328.5v877q0 27 28 27h41q11 0 19 -8t8 -19v-885q0 -237 -148.5 -389.5t-389.5 -152.5t-388 152t-147 390z" />
    <glyph glyph-name="V" unicode="V" horiz-adv-x="1333" 
d="M29 1434h55q17 0 22 -15l553 -1272h5l559 1272q5 15 22 15h53q31 0 19 -29l-629 -1407q-7 -18 -24 -18h-11q-16 0 -22 18l-619 1409q-12 27 17 27z" />
    <glyph glyph-name="W" unicode="W" horiz-adv-x="1835" 
d="M79 1415q0 19 23 19h50q19 0 24 -23l344 -1200h4l361 1225q6 18 30 18h5q24 0 30 -18l363 -1225h4l342 1200q5 23 24 23h50q23 0 23 -19q0 -4 -1 -8l-405 -1413q-4 -14 -19 -14h-22q-15 0 -21 14l-368 1247h-5l-368 -1247q-6 -14 -21 -14h-22q-16 0 -19 14l-405 1413
q-1 4 -1 8z" />
    <glyph glyph-name="X" unicode="X" horiz-adv-x="1157" 
d="M1092 17q0 -17 -21 -17h-65q-18 0 -27 12l-401 633h-3l-395 -633q-9 -12 -26 -12h-66q-16 0 -20 9t4 22l444 702l-420 670q-8 12 -3 21.5t20 9.5h65q17 0 27 -13l370 -602h3l374 602q10 13 27 13h65q15 0 20 -9.5t-3 -21.5l-422 -670l448 -702q5 -8 5 -14z" />
    <glyph glyph-name="Y" unicode="Y" horiz-adv-x="1146" 
d="M-10 1417q0 17 22 17h62q16 0 26 -13l467 -637l475 637q10 13 27 13h61q23 0 23 -17q0 -7 -6 -14l-533 -705v-671q0 -11 -8 -19t-14 -8h-16q-4 -1 -8 -1t-6 1q-44 0 -44 27v669l-522 707q-6 8 -6 14z" />
    <glyph glyph-name="Z" unicode="Z" horiz-adv-x="1091" 
d="M61 25v36l832 1278v4h-741q-11 0 -19 9t-8 22v33q0 11 8.5 19t18.5 8h843q12 0 19.5 -8t7.5 -19v-33l-834 -1282v-2h764q12 0 19.5 -8t7.5 -19v-36q0 -11 -7.5 -19t-19.5 -8h-862q-12 0 -20.5 7.5t-8.5 17.5z" />
    <glyph glyph-name="bracketleft" unicode="[" horiz-adv-x="675" 
d="M170 -590v1997q0 11 8 19t19 8h399q10 0 18.5 -8t8.5 -19v-31q0 -10 -8 -18t-19 -8h-338v-1882h338q10 0 18.5 -8t8.5 -19v-31q0 -10 -8 -18t-19 -8h-399q-11 0 -19 8t-8 18z" />
    <glyph glyph-name="backslash" unicode="\" horiz-adv-x="669" 
d="M78 1434h28q20 0 27 -17l453 -1388q4 -13 -3 -21t-20 -8h-31q-20 0 -26 18l-453 1387q-4 12 3.5 20.5t21.5 8.5z" />
    <glyph glyph-name="bracketright" unicode="]" horiz-adv-x="673" 
d="M53 -559q0 11 8.5 19t18.5 8h336v1882h-336q-11 0 -19 8t-8 18v31q0 11 8.5 19t18.5 8h397q11 0 19 -8t8 -19v-1997q0 -10 -8 -18t-19 -8h-397q-11 0 -19 8t-8 18v31z" />
    <glyph glyph-name="asciicircum" unicode="^" horiz-adv-x="1073" 
d="M537 1462h6q11 0 22 -14l430 -596q9 -12 6 -22.5t-18 -10.5h-47q-20 0 -33 17l-364 505l-365 -505q-13 -17 -33 -17h-47q-15 0 -18 10.5t6 22.5l432 596q10 14 23 14z" />
    <glyph glyph-name="underscore" unicode="_" horiz-adv-x="804" 
d="M80 -92q-27 0 -27 24v21q0 11 7.5 19t19.5 8h645q11 0 19 -8t8 -19v-21q0 -10 -8 -17t-19 -7h-645z" />
    <glyph glyph-name="grave" unicode="`" horiz-adv-x="618" 
d="M147 1337l21 41q10 18 35 6l336 -184q19 -11 12 -29l-10 -20q-8 -17 -33 -6l-352 162q-19 10 -9 30z" />
    <glyph glyph-name="a" unicode="a" horiz-adv-x="874" 
d="M174 256q0 -90 54 -143.5t140 -53.5t162 40.5t111 86.5v226q-97 43 -211 43t-185 -54.5t-71 -144.5zM90 250q0 122 93 200t251 78q104 0 207 -36q0 181 -44.5 225.5t-158.5 44.5t-223 -55q-24 -9 -31 16l-10 25q-7 22 12 30q33 23 119.5 42.5t150.5 19.5t104.5 -9.5
t67.5 -24.5t55 -55.5t36 -103t8 -166.5v-454q0 -11 -8.5 -19t-18.5 -8h-24q-18 0 -25 23l-8 73q-123 -116 -285 -116q-116 0 -192 74t-76 196z" />
    <glyph glyph-name="b" unicode="b" 
d="M811 411q0 146 -92 243.5t-232 97.5q-65 0 -125.5 -21.5t-87.5 -42.5l-28 -22v-459q9 -18 73 -82t193 -64t214 102t85 248zM512 840q159 0 273 -123t114 -304t-109.5 -307t-259.5 -126t-215 53t-77 67l-7 -73q-3 -27 -28 -27h-21q-10 0 -18 8t-8 19v1380q0 11 8 19t18 8
h35q11 0 19 -8t8 -19v-649q109 82 268 82z" />
    <glyph glyph-name="c" unicode="c" horiz-adv-x="940" 
d="M94 410q0 120 59 219.5t157.5 155t209.5 55.5t190.5 -41t116.5 -88q17 -20 -4 -37l-20 -21q-19 -19 -43 4q-26 30 -89 62.5t-147 32.5q-141 0 -239.5 -97.5t-98.5 -243.5t99 -245.5t242 -99.5t251 120q20 23 39 4l23 -20q10 -10 10 -18t-8 -22q-21 -35 -108 -92.5
t-210 -57.5q-176 0 -303 123.5t-127 306.5z" />
    <glyph glyph-name="d" unicode="d" 
d="M503 752q-135 0 -226 -97.5t-91 -243.5t84 -248t213 -102t191.5 60t77.5 86v459q-114 86 -249 86zM752 1407q0 27 26 27h37q9 0 17 -8.5t8 -18.5v-1380q0 -11 -8 -19t-19 -8h-20q-26 0 -29 27l-6 71q-69 -74 -148.5 -96t-134.5 -22q-159 0 -269 125t-110 307t115 305
t289 123q69 0 132 -20.5t92 -41.5l28 -20v649z" />
    <glyph glyph-name="e" unicode="e" horiz-adv-x="956" 
d="M780 459q0 127 -74 213t-206 86t-218 -85t-94 -214h592zM96 410q0 183 111 306.5t283 123.5t276 -106t104 -269q0 -60 -9.5 -70t-20.5 -10h-654q6 -135 95.5 -229.5t221.5 -94.5t245 76q14 9 21 9t15 -9l21 -28q11 -15 -15 -41t-113.5 -57t-176.5 -31
q-183 0 -293.5 123.5t-110.5 306.5z" />
    <glyph glyph-name="f" unicode="f" horiz-adv-x="641" 
d="M84 739q-27 0 -27 27v27q0 10 8 18t19 8h123v281q0 175 84.5 264.5t224.5 89.5q73 0 138 -27.5t91 -60.5q9 -11 9 -19t-4 -14l-21 -28q-15 -22 -39 1t-73 44.5t-101 21.5q-101 0 -160 -68t-59 -204v-281h303q27 0 27 -24v-31q0 -25 -27 -25h-303v-712q0 -11 -8.5 -19
t-18.5 -8h-37q-10 0 -18 8t-8 19v712h-123z" />
    <glyph glyph-name="g" unicode="g" horiz-adv-x="946" 
d="M227 496q0 -112 68.5 -187.5t186.5 -75.5t187.5 75.5t69.5 193.5t-72.5 187t-184.5 69t-183.5 -75t-71.5 -187zM498 -551q140 0 233.5 72t93.5 163t-51 142t-158 51h-258q-29 -3 -97 -53t-68 -144q0 -93 82.5 -162t222.5 -69zM838 840q26 0 26 -27v-22q0 -22 -18 -25
l-148 -10q38 -19 82.5 -81t44.5 -192t-94 -229.5t-246 -99.5q-83 0 -140 22.5t-83 50.5q-24 -9 -64 -44.5t-40 -102.5q0 -119 161 -119h297q139 0 221.5 -65.5t82.5 -198.5t-118 -232.5t-310 -99.5t-291 95.5t-99 218.5t129 204q-44 10 -101.5 55t-57.5 137t53 146t82 68
q-23 29 -43.5 84.5t-20.5 120.5q0 151 98 248.5t261 97.5h336z" />
    <glyph glyph-name="h" unicode="h" horiz-adv-x="1013" 
d="M178 0q-22 0 -22 27v1380q0 11 8 19t20 8h33q11 0 19 -8t8 -19v-698q131 131 294 131t247.5 -96t84.5 -279v-438q0 -11 -8 -19t-18 -8h-37q-11 0 -19 8t-8 19v438q0 140 -62.5 213.5t-183.5 73.5t-195 -59.5t-95 -84.5v-581q0 -27 -27 -27h-39z" />
    <glyph glyph-name="i" unicode="i" horiz-adv-x="401" 
d="M178 0q-22 0 -22 27v766q0 11 8 18.5t18 7.5h37q11 0 19 -8t8 -18v-766q0 -27 -27 -27h-41zM131 1288q0 28 20.5 50t49.5 22t49 -21t20 -50t-20 -48.5t-49 -19.5t-49.5 19.5t-20.5 47.5z" />
    <glyph glyph-name="j" unicode="j" horiz-adv-x="399" 
d="M129 1288q0 28 20.5 50t49.5 22t49 -21t20 -50t-20 -48.5t-49 -19.5t-49.5 19.5t-20.5 47.5zM-252 -476q10 0 19 -9q88 -68 183 -68t150.5 67t55.5 205v1074q0 11 8 18.5t18 7.5h35q11 0 19 -8t8 -18v-1074q0 -176 -79.5 -265t-219.5 -89q-72 0 -135.5 28.5t-83.5 48.5
t-20 27t5 13l21 33q6 9 16 9z" />
    <glyph glyph-name="k" unicode="k" horiz-adv-x="876" 
d="M178 0q-22 0 -22 27v1380q0 11 8 19t18 8h35q11 0 19 -8t8 -19v-918l436 318q15 12 33 12h59q15 0 16.5 -14.5t-10.5 -22.5l-440 -323l493 -424q8 -8 8 -17q0 -18 -18 -18h-63q-20 0 -41 16l-473 408v-397q0 -27 -27 -27h-39z" />
    <glyph glyph-name="l" unicode="l" horiz-adv-x="401" 
d="M178 0q-22 0 -22 27v1380q0 11 8 19t18 8h37q11 0 19 -8t8 -19v-1380q0 -27 -27 -27h-41z" />
    <glyph glyph-name="m" unicode="m" horiz-adv-x="1562" 
d="M178 0q-22 0 -22 27v766q0 11 8 18.5t18 7.5h25q19 0 22 -20l11 -88q25 34 95 81.5t187 47.5q189 0 269 -150q27 36 107 93t200 57q162 0 240.5 -98.5t78.5 -276.5v-438q0 -11 -8 -19t-18 -8h-41q-9 0 -16 7.5t-7 19.5v438q0 141 -60 214t-175 73q-156 0 -271 -140
q19 -68 19 -147v-438q0 -11 -8 -19t-19 -8h-39q-24 0 -24 27v438q0 141 -61 214t-190 73t-187 -65t-66 -77v-583q0 -27 -27 -27h-41z" />
    <glyph glyph-name="n" unicode="n" horiz-adv-x="1013" 
d="M178 0q-22 0 -22 27v766q0 11 8 18.5t20 7.5h21q21 0 24 -20l9 -88q31 33 109.5 81t193.5 48q167 0 248 -98.5t81 -276.5v-438q0 -11 -8 -19t-18 -8h-37q-11 0 -19 8t-8 19v438q0 140 -62.5 213.5t-183.5 73.5t-199 -62t-91 -80v-583q0 -27 -27 -27h-39z" />
    <glyph glyph-name="o" unicode="o" horiz-adv-x="1011" 
d="M182 410q0 -144 94 -245.5t230 -101.5t228.5 101.5t92.5 245.5t-93.5 244t-228.5 100t-229 -100t-94 -244zM94 410q0 178 120 304t292 126t292 -126t120 -304t-120 -304t-292 -126t-292 126t-120 304z" />
    <glyph glyph-name="p" unicode="p" horiz-adv-x="997" 
d="M477 66q147 0 240.5 99t93.5 245t-87 246t-213 100t-190.5 -49t-74.5 -66v-479q4 -8 29.5 -28.5t82.5 -44t119 -23.5zM156 -588v1381q0 11 8.5 18.5t19.5 7.5h23q21 0 24 -20l7 -58q124 99 280 99t269.5 -124.5t113.5 -306.5t-117 -305.5t-297 -123.5q-61 0 -129.5 21.5
t-113.5 61.5v-651q0 -10 -8 -18t-19 -8h-35q-10 0 -18 8t-8 18z" />
    <glyph glyph-name="q" unicode="q" 
d="M186 411q0 -147 92.5 -246t239.5 -99q62 0 132.5 28t101.5 66v481q-25 37 -96 76t-158 39q-138 0 -225 -99t-87 -246zM96 408q0 182 112 307t269 125t281 -99l8 56q3 22 27 22h22q9 0 17 -8t8 -18v-1381q0 -10 -8 -18t-17 -8h-37q-10 0 -18 8t-8 18v654q-99 -86 -242 -86
q-181 0 -297.5 123t-116.5 305z" />
    <glyph glyph-name="r" unicode="r" horiz-adv-x="663" 
d="M178 0q-22 0 -22 27v766q0 11 8 18.5t18 7.5h25q21 0 24 -22l9 -84q23 34 85.5 80.5t170.5 46.5q60 0 100 -15t46 -23q5 -8 5 -14t-2 -10l-16 -41q-9 -20 -33 -10q-62 25 -112 25t-98 -19.5t-88.5 -58.5t-51.5 -64v-583q0 -27 -27 -27h-41z" />
    <glyph glyph-name="s" unicode="s" horiz-adv-x="757" 
d="M368 840q132 0 232 -66q21 -14 8 -39l-12 -22q-14 -25 -33 -13q-104 60 -193 60t-133 -41t-44 -94t46.5 -88.5t118.5 -61.5t94.5 -34.5t58.5 -25t75 -41.5t64.5 -67t25.5 -100q0 -93 -84.5 -160t-220.5 -67t-254 92q-17 13 -8 28l20 33q12 20 37 2q100 -80 202 -80
t158 42.5t56 104.5t-54 100t-176 82t-187 99.5t-65 137.5t68 150.5t200 68.5z" />
    <glyph glyph-name="t" unicode="t" horiz-adv-x="673" 
d="M590 766q0 -27 -27 -27h-284v-522q0 -81 19.5 -115t76.5 -34q102 0 196 55q21 12 33 -8l14 -25q5 -9 5 -18t-22 -26t-85.5 -41.5t-132.5 -24.5q-130 0 -161.5 62.5t-31.5 168.5v528h-96q-24 0 -24 27v33q0 20 24 20h96v223q0 12 8 19.5t19 7.5l35 2q10 0 18.5 -8.5
t8.5 -18.5v-225h284q27 0 27 -26v-27z" />
    <glyph glyph-name="u" unicode="u" horiz-adv-x="993" 
d="M143 352v441q0 10 8 18t19 8h37q11 0 18.5 -7.5t7.5 -18.5v-441q0 -141 63 -213.5t184 -72.5t186 58.5t82 84.5v584q0 26 26 26h37q11 0 19 -8t8 -18v-766q0 -11 -8 -19t-19 -8h-25q-20 0 -24 25l-8 79q-26 -33 -97 -78.5t-186 -45.5q-328 0 -328 372z" />
    <glyph glyph-name="v" unicode="v" horiz-adv-x="835" 
d="M30 804q0 16 17 15h45q19 0 27 -18l297 -676h2l299 676q8 18 26 18h45q14 1 16 -11t-3 -20l-357 -790q-9 -18 -24 -18h-8q-17 0 -25 18l-352 790q-5 8 -5 16z" />
    <glyph glyph-name="w" unicode="w" horiz-adv-x="1241" 
d="M66 804q0 15 16 15h45q22 0 27 -18l192 -645h2l244 665q5 19 24 19h9q18 0 24 -19l244 -665h2l192 645q5 18 27 18h45q16 0 16 -15q0 -7 -4 -18l-245 -788q-5 -18 -25 -18h-8q-19 0 -25 18l-247 690h-3l-245 -690q-6 -18 -25 -18h-8q-20 0 -25 18l-245 788q-4 11 -4 18z
" />
    <glyph glyph-name="x" unicode="x" horiz-adv-x="856" 
d="M84 0q-18 0 -18 16q0 4 6 13l301 391l-285 371q-9 11 -4.5 19.5t16.5 8.5h54q18 0 30 -18l240 -318h2l242 318q12 18 30 18h54q12 0 16.5 -8.5t-4.5 -19.5l-283 -369l297 -393q6 -7 6 -12q0 -17 -18 -17h-53q-19 0 -31 18l-256 342h-2l-256 -342q-12 -18 -31 -18h-53z
" />
    <glyph glyph-name="y" unicode="y" horiz-adv-x="907" 
d="M26 802q0 17 17 17h45q18 0 27 -18l350 -692h4l319 692q9 18 27 18h45q17 0 17 -17q0 -8 -5 -16l-643 -1384q-6 -16 -26 -16h-47q-27 0 -15 28l277 594l-387 778q-5 8 -5 16z" />
    <glyph glyph-name="z" unicode="z" horiz-adv-x="759" 
d="M657 27q0 -27 -26 -27h-537q-10 0 -17 7t-7 16v22l481 686v6h-418q-10 0 -17 8t-7 19v29q0 26 24 26h531q15 -1 21 -10t6 -15t-5 -14l-479 -692v-6h424q26 0 26 -27v-28z" />
    <glyph glyph-name="braceleft" unicode="{" horiz-adv-x="747" 
d="M694 -610q0 -25 -48 -25t-146 24t-188.5 140t-90.5 332v336q0 93 -51.5 130t-77.5 45q-30 10 -34.5 13t-4.5 12v33q-1 13 21 20q43 14 95 51t52 130v327q0 307 151.5 401.5t293.5 94.5q11 0 19.5 -7t8.5 -17v-25q0 -22 -20 -25q-172 -13 -268.5 -117t-96.5 -307v-325
q0 -142 -139 -217v-2q90 -45 114.5 -109.5t24.5 -105.5v-334q0 -203 96.5 -307t268.5 -117q20 -3 20 -25v-24z" />
    <glyph glyph-name="bar" unicode="|" horiz-adv-x="399" 
d="M168 1528q0 26 27 26h12q24 0 24 -26v-2118q0 -10 -7.5 -17t-18.5 -7h-10q-11 0 -19 7t-8 17v2118z" />
    <glyph glyph-name="braceright" unicode="}" horiz-adv-x="747" 
d="M53 1430q0 24 48 24t147 -24.5t188.5 -140t89.5 -331.5v-327q0 -101 55 -135t84 -44q29 -9 29 -22v-33q0 -13 -18 -19q-18 -5 -84 -30.5t-66 -150.5v-336q0 -308 -151.5 -402t-292.5 -94q-11 0 -20 7.5t-9 17.5v24q0 22 21 25q172 13 268 117t96 307v334q0 121 63 164.5
t77 50.5v2q-140 78 -140 217v325q0 203 -96 307t-268 117q-21 4 -21 25v25z" />
    <glyph glyph-name="asciitilde" unicode="~" horiz-adv-x="1175" 
d="M784 535q115 0 161 78t46 79q16 22 35 6l27 -18q22 -15 6 -33q-12 -24 -79.5 -109t-195.5 -85q-44 0 -87.5 19.5t-66 37.5t-52.5 48t-69 62.5t-101 32.5q-113 0 -159 -78t-46 -79q-16 -22 -37 -7l-27 21q-17 14 -9 28t30.5 49t89 92.5t166.5 57.5q102 0 198 -101
t170 -101z" />
    <glyph glyph-name="uni00A0" unicode="&#xa0;" horiz-adv-x="444" 
 />
    <glyph glyph-name="exclamdown" unicode="&#xa1;" horiz-adv-x="460" 
d="M221 268h17q10 0 18 -7.5t8 -16.5l21 -582v-250q0 -26 -31 -26h-51q-11 0 -19 8t-8 18v248l19 584q0 9 8.5 16.5t17.5 7.5zM147 758q0 34 23.5 58t57.5 24t59.5 -24t25.5 -58t-25.5 -58t-59.5 -24t-57.5 24t-23.5 58z" />
    <glyph glyph-name="cent" unicode="&#xa2;" horiz-adv-x="911" 
d="M164 412q0 -108 55.5 -193.5t145.5 -124.5l176 654q-24 4 -39 4q-141 0 -239.5 -97.5t-98.5 -242.5zM72 401q0 129 59 228.5t157.5 155t213.5 55.5q33 0 63 -6l21 81q6 22 43 15q10 -1 15.5 -11t2.5 -22l-20 -78q63 -18 111 -50t66 -55t-3 -40l-23 -21q-9 -8 -18 -8
t-23 14q-52 52 -133 74l-178 -661q38 -6 70 -6t58.5 4.5t47 10.5t42 16t48.5 26t70 63q18 19 37 0l16 -14q19 -20 7 -38q-27 -42 -113 -98t-207 -56q-62 0 -101 10l-47 -185q-6 -21 -43 -14q-10 1 -15.5 10.5t-2.5 20.5l47 186q-119 47 -193.5 155.5t-74.5 237.5z" />
    <glyph glyph-name="sterling" unicode="&#xa3;" horiz-adv-x="1060" 
d="M739 682q27 0 27 -29v-8q0 -11 -7.5 -19t-19.5 -8h-397q12 -73 12 -165q-3 -201 -75 -369h614q25 0 25 -29v-30q0 -9 -7.5 -17t-17.5 -8h-700q-11 0 -18.5 9.5t-6.5 19.5v18q48 107 75 220t25 185t-18 166h-88q-12 0 -19.5 9.5t-7.5 21.5v8q0 9 8.5 17t18.5 8h74
q-44 162 -55 227t-11 131q0 183 121.5 298.5t294.5 115.5q122 0 261 -70.5t93 -123.5l-16 -19q-20 -21 -45 4q-82 82 -165.5 102.5t-131.5 20.5q-134 0 -228 -92t-94 -238q0 -108 31 -223.5t35 -132.5h413z" />
    <glyph glyph-name="currency" unicode="&#xa4;" horiz-adv-x="1005" 
d="M310 657q0 -83 57 -139t139 -56.5t139 56.5t57 139.5t-57 140.5t-139 57t-139 -58t-57 -140zM168 373.5q0 10.5 6 15.5l109 109q-54 71 -53.5 161.5t53.5 159.5l-109 107q-15 20 4 37l21 22q16 13 39 4l104 -108q74 55 162.5 54t159.5 -56l108 108q4 6 16.5 5.5
t20.5 -11.5l22 -18q15 -20 0 -39l-104 -105q53 -71 53 -160.5t-53 -158.5l104 -105q14 -22 -6 -39l-20 -22q-19 -16 -37 -2l-104 104q-71 -53 -161 -53.5t-161 53.5l-104 -108q-18 -11 -39 4l-21 24q-10 7 -10 17.5z" />
    <glyph glyph-name="yen" unicode="&#xa5;" horiz-adv-x="1269" 
d="M272 528q-24 0 -24 25v12q0 27 24 27h308v104l-523 707q-9 12 -3.5 21.5t20.5 9.5h61q17 0 27 -13l467 -639l475 639q10 13 26 13h62q15 0 20 -9.5t-4 -21.5l-532 -705v-106h307q25 0 25 -27v-12q0 -25 -25 -25h-307v-180h307q25 0 25 -26v-13q0 -24 -25 -24h-307v-258
q0 -11 -8 -19t-19 -8h-45q-10 0 -17 8t-7 19v258h-308q-24 0 -24 24v13q0 26 24 26h308v180h-308z" />
    <glyph glyph-name="brokenbar" unicode="&#xa6;" horiz-adv-x="735" 
d="M336 1528q0 26 26 26h13q24 0 24 -26v-707q0 -11 -7.5 -18.5t-18.5 -7.5h-11q-10 0 -18 7.5t-8 18.5v707zM336 119q0 11 8 18.5t18 7.5h13q10 0 17 -7.5t7 -18.5v-709q0 -10 -7.5 -17t-18.5 -7h-11q-11 0 -18.5 7t-7.5 17v709z" />
    <glyph glyph-name="section" unicode="&#xa7;" horiz-adv-x="1091" 
d="M199 596q0 -114 80.5 -180t232.5 -116t252 -107q1 1 14.5 13t21.5 19.5t45.5 47.5t37.5 126q0 111 -97.5 179t-287.5 131q-127 34 -193 84q-54 -51 -80 -95t-26 -102zM102 592q0 126 134 246q-132 123 -132 266q0 102 92 226t349 124q116 0 233.5 -45t125 -64.5
t-0.5 -35.5l-20 -31q-17 -24 -47 -4q-7 4 -14 8.5t-19.5 11.5t-25 13.5t-30 14t-68.5 27t-138 19.5q-179 0 -260.5 -82.5t-81.5 -188.5q0 -105 86 -178t250 -124q281 -95 365.5 -186.5t84.5 -211.5q0 -52 -18 -87.5t-29 -53.5t-28.5 -38.5t-26.5 -30t-25.5 -25.5t-17.5 -17
q143 -118 143 -278q0 -96 -60.5 -174t-159.5 -121t-197 -43q-179 0 -289.5 62.5t-149.5 99.5q-22 22 -6 43l26 33q19 22 36 5q35 -35 132 -96t232 -61t235.5 70.5t100.5 184.5t-95 190t-290 141q-295 96 -345.5 205.5t-50.5 185.5z" />
    <glyph glyph-name="dieresis" unicode="&#xa8;" horiz-adv-x="847" 
d="M586 1290q0 30 19 50t49 20t50.5 -20t20.5 -50t-20.5 -49.5t-50.5 -19.5t-49 19.5t-19 49.5zM193 1290q0 30 20 50t50 20t49.5 -20t19.5 -50t-20 -49.5t-50 -19.5t-49.5 19.5t-19.5 49.5z" />
    <glyph glyph-name="copyright" unicode="&#xa9;" horiz-adv-x="1705" 
d="M481 714q0 162 113.5 275t265.5 113t248 -78q20 -18 4 -39l-18 -22q-14 -19 -35 -2q-75 59 -195 59t-206.5 -89t-86.5 -216t87 -215t201 -88t198 63q23 17 39 -4l18 -25q13 -19 -2 -34q-98 -88 -250 -88t-266.5 114t-114.5 276zM195 694q0 -156 88 -307t239.5 -239.5
t329.5 -88.5t329.5 88.5t239.5 239.5t88 307t-52 277.5t-140 209t-210 139.5t-255 52t-255 -52t-210 -139.5t-140 -209t-52 -277.5zM115 742q0 175 98.5 344.5t268.5 268.5t370 99t370 -99t269.5 -268.5t99.5 -369.5t-99.5 -370t-269.5 -268.5t-345 -98.5t-311.5 58
t-235.5 157t-157 235.5t-58 311.5z" />
    <glyph glyph-name="ordfeminine" unicode="&#xaa;" horiz-adv-x="663" 
d="M145 1027q0 -61 39.5 -99.5t98.5 -38.5t111.5 27.5t78.5 60.5v164q-81 28 -153 28t-123.5 -40.5t-51.5 -101.5zM545 860q0 -20 -21 -20h-22q-18 0 -21 16l-6 47q-92 -78 -188 -78t-150.5 54.5t-54.5 144.5t68 145.5t166 55.5t159 -23q0 107 -22.5 147t-108.5 40
t-126.5 -20.5t-41.5 -20.5q-18 -6 -22 10l-9 26q-6 17 11 25q90 45 192 45t136.5 -33.5t47.5 -77t13 -167.5v-316z" />
    <glyph glyph-name="guillemotleft" unicode="&#xab;" horiz-adv-x="829" 
d="M676 776h33q12 0 15.5 -11t-5.5 -26l-193 -313l193 -322q9 -15 5.5 -25.5t-15.5 -10.5h-33q-20 0 -33 18l-221 322q-12 15 0 34l221 316q13 18 33 18zM348 776h33q12 0 15.5 -11t-5.5 -26l-192 -313l192 -322q9 -15 5.5 -25.5t-15.5 -10.5h-33q-20 0 -33 18l-221 322
q-12 15 0 34l221 316q13 18 33 18z" />
    <glyph glyph-name="logicalnot" unicode="&#xac;" horiz-adv-x="1087" 
d="M98 696v31q0 11 8 19t19 8h788q10 0 17.5 -8t7.5 -19v-410q0 -10 -8 -17t-19 -7h-32q-11 0 -19 7t-8 17v353h-727q-11 0 -19 8t-8 18z" />
    <glyph glyph-name="uni00AD" unicode="&#xad;" horiz-adv-x="710" 
d="M586 549q26 0 26 -27v-22q0 -11 -8 -19t-18 -8h-463q-10 0 -17.5 8t-7.5 19v22q0 27 25 27h463z" />
    <glyph glyph-name="registered" unicode="&#xae;" horiz-adv-x="1708" 
d="M1090 866q0 158 -201 158h-217v-317h241q73 0 125 43.5t52 115.5zM590 369v702q0 11 7 19t17 8h299q104 0 182.5 -57.5t78.5 -166.5q0 -108 -59.5 -165t-135.5 -72l143 -262q6 -11 1.5 -21t-17.5 -10h-47q-19 0 -29 21l-137 266h-221v-262q0 -27 -25 -27h-33q-10 0 -17 8
t-7 19zM195 694q0 -156 88 -307t239.5 -239.5t329.5 -88.5t329.5 88.5t239.5 239.5t88 307t-52 277.5t-140 209t-210 139.5t-255 52t-255 -52t-210 -139.5t-140 -209t-52 -277.5zM115 742q0 175 98.5 344.5t268.5 268.5t370 99t370 -99t269.5 -268.5t99.5 -369.5t-99.5 -370
t-269.5 -268.5t-345 -98.5t-311.5 58t-235.5 157t-157 235.5t-58 311.5z" />
    <glyph glyph-name="macron" unicode="&#xaf;" horiz-adv-x="847" 
d="M119 1270q0 26 26 26h557q11 0 19 -8t8 -18v-27q0 -10 -8 -17t-19 -7h-557q-26 0 -26 24v27z" />
    <glyph glyph-name="degree" unicode="&#xb0;" horiz-adv-x="716" 
d="M147 1174q0 -86 62.5 -148.5t147.5 -62.5t147.5 62.5t62.5 147.5t-62.5 147t-147.5 62t-147.5 -61t-62.5 -147zM76 1174q0 118 82 200t199 82t200.5 -82t83.5 -200t-83.5 -200.5t-200.5 -82.5t-199 82.5t-82 200.5z" />
    <glyph glyph-name="plusminus" unicode="&#xb1;" horiz-adv-x="1257" 
d="M209 809v31q0 10 8 18t19 8h350v344q0 10 7.5 17.5t18.5 7.5h33q11 0 19 -7.5t8 -17.5v-344h352q10 0 17.5 -7.5t7.5 -18.5v-31q0 -11 -7.5 -19t-17.5 -8h-352v-258q0 -10 -8 -18t-19 -8h-33q-10 0 -18 8t-8 18v258h-350q-10 0 -18.5 8t-8.5 19zM209 178v31q0 11 8.5 19
t18.5 8h788q10 0 17.5 -8t7.5 -19v-31q0 -11 -7.5 -18.5t-17.5 -7.5h-788q-11 0 -19 8t-8 18z" />
    <glyph glyph-name="uni00B2" unicode="&#xb2;" horiz-adv-x="655" 
d="M111 1049v18l284 266q71 68 73 126t-37.5 95t-110.5 37t-138 -67q-4 -6 -10 -6t-10 4l-27 24q-11 10 -5 18t42.5 51.5t170.5 43.5q84 0 142 -53.5t58 -139.5t-94 -172l-218 -198h293q15 0 15 -17v-30q0 -17 -15 -17h-395q-18 0 -18 17z" />
    <glyph glyph-name="uni00B3" unicode="&#xb3;" horiz-adv-x="647" 
d="M555 1188q0 -76 -65 -126t-158 -50t-148.5 28t-77.5 56q-11 11 0 22l23 23q13 13 27 0q66 -66 149 -66t127.5 33t44.5 83t-43 84t-123 34h-92q-16 0 -16 20v25q0 16 16 16h92q66 0 108 29t42 81t-39 82.5t-112 30.5t-134 -61q-11 -11 -20 -2l-27 22q-13 12 -6 19t20 21
t64.5 40.5t131.5 26.5q79 0 138.5 -45.5t59.5 -122.5q0 -48 -32.5 -88.5t-74.5 -59.5q125 -50 125 -155z" />
    <glyph glyph-name="acute" unicode="&#xb4;" horiz-adv-x="618" 
d="M147 1178q-7 17 13 28l338 178q23 14 34 -6l21 -41q11 -22 -18 -37l-347 -157q-14 -5 -18.5 -3.5t-9.5 11.5z" />
    <glyph glyph-name="uni00B5" unicode="&#xb5;" horiz-adv-x="1034" 
d="M160 -588v1381q0 11 8 18.5t18 7.5h37q11 0 19 -8t8 -18v-441q0 -141 63 -213.5t183 -72.5t185.5 58.5t82.5 84.5v584q0 26 27 26h36q11 0 19 -8t8 -18v-766q0 -11 -8 -19t-19 -8h-24q-21 0 -25 25l-8 79q-26 -33 -97 -78.5t-167 -45.5t-161.5 30.5t-94.5 75.5v-674
q0 -11 -9 -18.5t-20 -7.5h-35q-10 0 -18 8t-8 18z" />
    <glyph glyph-name="paragraph" unicode="&#xb6;" horiz-adv-x="1402" 
d="M1360 1382q0 -26 -27 -26h-219v-1944q0 -10 -8 -18t-19 -8h-22q-10 0 -18.5 7t-8.5 19v1944h-358v-1944q0 -10 -8 -18t-19 -8h-22q-10 0 -18.5 7t-8.5 19v1168h-147q-118 0 -212 60.5t-143 157t-49 206.5q0 178 117.5 304t286.5 126h876q11 0 19 -8t8 -19v-25z" />
    <glyph glyph-name="periodcentered" unicode="&#xb7;" horiz-adv-x="477" 
d="M156 536q0 34 25 57t59 23t58 -23t24 -57t-24 -58.5t-58 -24.5t-59 24.5t-25 58.5z" />
    <glyph glyph-name="cedilla" unicode="&#xb8;" horiz-adv-x="505" 
d="M233 -434q61 0 94 35.5t33 87.5q0 118 -188 139q-25 6 -25 27v145h74v-111q98 -11 158.5 -61t60.5 -135t-58 -143t-128 -58t-114.5 22t-59.5 47t2 38l20 16q15 12 33 -6q37 -43 98 -43z" />
    <glyph glyph-name="uni00B9" unicode="&#xb9;" horiz-adv-x="382" 
d="M258 1049q0 -17 -16 -17h-41q-17 0 -17 17v493l-96 -57q-12 -6 -18 4l-13 20q-6 13 6 23l150 106h25q20 0 20 -16v-573z" />
    <glyph glyph-name="ordmasculine" unicode="&#xba;" horiz-adv-x="677" 
d="M162 1129q0 -121 46.5 -188t130.5 -67t130.5 67t46.5 188t-47 190.5t-131 69.5t-130 -69.5t-46 -190.5zM88 1130q0 152 66 238t184 86t185 -86t67 -238t-67 -237.5t-185 -85.5t-184 85.5t-66 237.5z" />
    <glyph glyph-name="guillemotright" unicode="&#xbb;" horiz-adv-x="829" 
d="M449 776h32q20 0 33 -18l221 -316q12 -19 0 -34l-221 -322q-13 -18 -33 -18h-32q-12 0 -16 10.5t5 25.5l193 322l-193 313q-9 15 -5 26t16 11zM121 776h33q19 0 32 -18l222 -316q12 -19 0 -34l-222 -322q-13 -18 -32 -18h-33q-12 0 -15.5 10.5t5.5 25.5l192 322l-192 313
q-9 15 -5.5 26t15.5 11z" />
    <glyph glyph-name="onequarter" unicode="&#xbc;" horiz-adv-x="1300" 
d="M1006 211v266l-244 -266h244zM664 141q-19 0 -19 19v18l387 428h29q8 0 14 -5.5t6 -12.5v-379h80q7 0 13 -5t6 -11v-33q0 -6 -6 -11.5t-13 -5.5h-80v-125q0 -7 -6 -12.5t-14 -5.5h-35q-8 0 -14 5.5t-6 12.5v123h-342zM967 1434h30q12 0 17.5 -8.5t-0.5 -20.5l-787 -1395
q-6 -10 -26 -10h-31q-12 0 -17 8.5t1 20.5l786 1394q7 11 27 11zM297 844q0 -17 -16 -17h-41q-17 0 -17 17v493l-96 -57q-11 -6 -18 4l-13 21q-6 12 6 22l150 107h24q21 0 21 -17v-573z" />
    <glyph glyph-name="onehalf" unicode="&#xbd;" horiz-adv-x="1370" 
d="M793 16v19l284 266q71 68 73 126t-37.5 95t-110.5 37t-138 -67q-10 -13 -20 -3l-27 25q-11 10 -5 18t43 51.5t171 43.5q84 0 141.5 -53.5t57.5 -138.5t-95 -173l-217 -199h293q15 0 15 -16v-31q0 -16 -15 -16h-395q-18 0 -18 16zM967 1434h30q12 0 17.5 -8.5t-0.5 -20.5
l-787 -1395q-6 -10 -26 -10h-31q-12 0 -17 8.5t1 20.5l786 1394q7 11 27 11zM297 844q0 -17 -16 -17h-41q-17 0 -17 17v493l-96 -57q-11 -6 -18 4l-13 21q-6 12 6 22l150 107h24q21 0 21 -17v-573z" />
    <glyph glyph-name="threequarters" unicode="&#xbe;" horiz-adv-x="1445" 
d="M1149 211v266l-244 -266h244zM788 160v18l388 428h28q8 0 14.5 -5.5t6.5 -12.5v-379h80q7 0 12.5 -5t5.5 -11v-33q0 -6 -5.5 -11.5t-12.5 -5.5h-80v-125q0 -7 -6.5 -12.5t-14.5 -5.5h-35q-8 0 -14 5.5t-6 12.5v123h-342q-7 0 -13 5.5t-6 13.5zM1110 1434h31q12 0 17 -8.5
t-1 -20.5l-786 -1395q-6 -10 -27 -10h-31q-12 0 -17 8.5t1 20.5l786 1394q7 11 27 11zM549 983q0 -76 -65.5 -126t-158.5 -50t-148 28t-77 56q-11 11 0 22l23 23q13 14 27 0q66 -66 149 -66t127.5 33t44.5 83t-43 84t-123 34h-92q-16 0 -16 20v25q0 16 16 16h92
q66 0 108 29.5t42 81.5t-39.5 82.5t-111.5 30.5t-134 -62q-11 -11 -20 -2l-27 23q-11 12 -5 18t19.5 21t64 41t130.5 26q79 0 138.5 -45.5t59.5 -122.5q0 -48 -32 -88t-74 -59q125 -50 125 -156z" />
    <glyph glyph-name="questiondown" unicode="&#xbf;" horiz-adv-x="489" 
d="M172 758q0 34 25 58t59 24t58 -24t24 -58t-24 -58t-58 -24t-59 24t-25 58zM-135 -346q0 75 35.5 136.5t86 101.5t136.5 99t86 124v116q0 29 27 29h38q25 0 25 -29v-118q0 -90 -63.5 -140t-107.5 -83.5t-107.5 -84.5t-63.5 -140q0 -90 68.5 -154t165.5 -64t140.5 18.5
t66 31t41.5 29t30 27t22.5 23.5t12.5 14q15 15 35 2l20 -14q22 -15 6 -39q-49 -68 -139.5 -121t-233.5 -53q-142 0 -234.5 80.5t-92.5 208.5z" />
    <glyph glyph-name="Agrave" unicode="&#xc0;" horiz-adv-x="1337" 
d="M496 1794l20 41q10 18 35 6l336 -184q19 -11 12 -29l-10 -20q-8 -17 -33 -6l-352 161q-19 9 -8 31zM313 475h711l-350 825h-4zM668 1464h6q19 0 26 -14l625 -1425q8 -25 -18 -25h-54q-19 0 -28 18l-166 377h-783l-163 -377q-9 -18 -29 -18h-57q-24 0 -15 25l631 1425
q7 14 25 14z" />
    <glyph glyph-name="Aacute" unicode="&#xc1;" horiz-adv-x="1337" 
d="M494 1628q-7 18 12 29l336 184q25 12 35 -6l20 -41q11 -22 -8 -31l-352 -161q-25 -11 -33 6zM313 475h711l-350 825h-4zM668 1464h6q19 0 26 -14l625 -1425q8 -25 -18 -25h-54q-19 0 -28 18l-166 377h-783l-163 -377q-9 -18 -29 -18h-57q-24 0 -15 25l631 1425
q7 14 25 14z" />
    <glyph glyph-name="Acircumflex" unicode="&#xc2;" horiz-adv-x="1337" 
d="M672 1839h6q10 0 20 -10l248 -201q19 -15 8 -29l-18 -22q-13 -17 -31 -4l-231 172l-230 -172q-17 -13 -30 4l-19 22q-11 14 8 29l248 201q10 10 21 10zM313 475h711l-350 825h-4zM668 1464h6q19 0 26 -14l625 -1425q8 -25 -18 -25h-54q-19 0 -28 18l-166 377h-783
l-163 -377q-9 -18 -29 -18h-57q-24 0 -15 25l631 1425q7 14 25 14z" />
    <glyph glyph-name="Atilde" unicode="&#xc3;" horiz-adv-x="1337" 
d="M547 1851q90 0 119.5 -46.5t55 -93t71.5 -46.5q77 0 116 121q3 10 12.5 14.5t18.5 -0.5l23 -8q17 -8 13 -23t-8.5 -29t-20 -43t-35 -51t-53 -39.5t-73.5 -17.5t-69.5 19.5t-46.5 47.5t-43.5 75t-71.5 47q-78 0 -117 -127q-7 -25 -30 -15l-25 11q-19 6 -12 28
q65 176 176 176zM313 475h711l-350 825h-4zM668 1464h6q19 0 26 -14l625 -1425q8 -25 -18 -25h-54q-19 0 -28 18l-166 377h-783l-163 -377q-9 -18 -29 -18h-57q-24 0 -15 25l631 1425q7 14 25 14z" />
    <glyph glyph-name="Adieresis" unicode="&#xc4;" horiz-adv-x="1337" 
d="M821 1710q0 30 20.5 50t50.5 20t50.5 -20t20.5 -50t-20.5 -50t-50.5 -20t-50.5 20t-20.5 50zM393 1710q0 30 20.5 50t50.5 20t50.5 -20t20.5 -50t-20.5 -50t-50.5 -20t-50.5 20t-20.5 50zM313 475h711l-350 825h-4zM668 1464h6q19 0 26 -14l625 -1425q8 -25 -18 -25h-54
q-19 0 -28 18l-166 377h-783l-163 -377q-9 -18 -29 -18h-57q-24 0 -15 25l631 1425q7 14 25 14z" />
    <glyph glyph-name="Aring" unicode="&#xc5;" horiz-adv-x="1337" 
d="M526 1761q0 -61 45 -106t107 -45t106.5 45t44.5 107t-44.5 106.5t-106.5 44.5t-107 -45.5t-45 -106.5zM461 1761q0 92 62.5 155.5t154.5 63.5t155.5 -63.5t63.5 -155.5t-63.5 -154.5t-155.5 -62.5t-154.5 62.5t-62.5 154.5zM313 475h711l-350 825h-4zM668 1464h6
q19 0 26 -14l625 -1425q8 -25 -18 -25h-54q-19 0 -28 18l-166 377h-783l-163 -377q-9 -18 -29 -18h-57q-24 0 -15 25l631 1425q7 14 25 14z" />
    <glyph glyph-name="AE" unicode="&#xc6;" horiz-adv-x="1873" 
d="M864 475v782l-497 -782h497zM1737 1374q0 -26 -27 -26h-756v-568h658q10 0 18 -8t8 -18v-35q0 -27 -26 -27h-658v-606h756q27 0 27 -29v-30q0 -11 -7.5 -19t-19.5 -8h-819q-11 0 -19 8t-8 19v368h-545l-237 -377q-13 -18 -33 -18h-57q-19 0 -16.5 13t8.5 22l870 1364
q11 18 21 26.5t30 8.5h805q12 0 19.5 -8t7.5 -19v-33z" />
    <glyph glyph-name="Ccedilla" unicode="&#xc7;" horiz-adv-x="1470" 
d="M1044 -307q0 -85 -58 -143t-128 -58t-114.5 22t-59.5 47t2 38l21 16q15 11 32 -6q37 -43 98 -43t94.5 35.5t33.5 87.5q0 118 -189 139q-24 5 -24 27v133q-178 23 -323.5 123.5t-229.5 259.5t-84 327t58.5 305t157.5 235.5t236.5 157t288.5 58.5q289 0 498 -190
q18 -18 2 -37l-33 -35q-17 -16 -35 2q-189 168 -432 168q-176 0 -323 -87.5t-231.5 -236t-84.5 -322.5t84.5 -322t231.5 -235t323 -87q225 0 432 172q18 15 33 4l35 -35q8 -6 8 -16.5t-8 -18.5q-204 -198 -500 -198l-31 2v-93q98 -11 158.5 -61t60.5 -135z" />
    <glyph glyph-name="Egrave" unicode="&#xc8;" horiz-adv-x="1224" 
d="M463 1794l20 41q10 18 35 6l336 -184q19 -11 12 -29l-10 -20q-8 -17 -33 -6l-352 161q-19 9 -8 31zM217 27v1380q0 11 8.5 19t18.5 8h821q11 0 19 -8t8 -19v-35q0 -10 -8 -18t-19 -8h-750v-566h650q11 0 18.5 -8t7.5 -18v-35q0 -11 -8 -19t-18 -8h-650v-606h750
q11 0 19 -8t8 -19v-32q0 -11 -8 -19t-19 -8h-821q-10 0 -18.5 8t-8.5 19z" />
    <glyph glyph-name="Eacute" unicode="&#xc9;" horiz-adv-x="1224" 
d="M461 1628q-7 18 12 29l336 184q25 12 35 -6l20 -41q11 -22 -8 -31l-352 -161q-25 -11 -33 6zM217 27v1380q0 11 8.5 19t18.5 8h821q11 0 19 -8t8 -19v-35q0 -10 -8 -18t-19 -8h-750v-566h650q11 0 18.5 -8t7.5 -18v-35q0 -11 -8 -19t-18 -8h-650v-606h750q11 0 19 -8
t8 -19v-32q0 -11 -8 -19t-19 -8h-821q-10 0 -18.5 8t-8.5 19z" />
    <glyph glyph-name="Ecircumflex" unicode="&#xca;" horiz-adv-x="1224" 
d="M639 1839h6q11 0 21 -10l247 -201q20 -16 9 -29l-19 -22q-13 -17 -31 -4l-231 172l-229 -172q-18 -13 -31 4l-19 22q-11 13 9 29l247 201q10 10 21 10zM217 27v1380q0 11 8.5 19t18.5 8h821q11 0 19 -8t8 -19v-35q0 -10 -8 -18t-19 -8h-750v-566h650q11 0 18.5 -8
t7.5 -18v-35q0 -11 -8 -19t-18 -8h-650v-606h750q11 0 19 -8t8 -19v-32q0 -11 -8 -19t-19 -8h-821q-10 0 -18.5 8t-8.5 19z" />
    <glyph glyph-name="Edieresis" unicode="&#xcb;" horiz-adv-x="1224" 
d="M797 1710q0 30 20 50t50 20t50.5 -20t20.5 -50t-21 -50t-51 -20t-49.5 20t-19.5 50zM369 1710q0 30 20 50t50 20t50.5 -20t20.5 -50t-21 -50t-51 -20t-49.5 20t-19.5 50zM217 27v1380q0 11 8.5 19t18.5 8h821q11 0 19 -8t8 -19v-35q0 -10 -8 -18t-19 -8h-750v-566h650
q11 0 18.5 -8t7.5 -18v-35q0 -11 -8 -19t-18 -8h-650v-606h750q11 0 19 -8t8 -19v-32q0 -11 -8 -19t-19 -8h-821q-10 0 -18.5 8t-8.5 19z" />
    <glyph glyph-name="Igrave" unicode="&#xcc;" horiz-adv-x="532" 
d="M217 27v1380q0 11 8.5 19t18.5 8h45q10 0 18 -8t8 -19v-1380q0 -12 -8.5 -19.5t-19.5 -7.5h-43q-10 0 -18.5 8t-8.5 19zM84 1794l20 41q10 18 35 6l336 -184q19 -11 12 -29l-10 -20q-8 -17 -33 -6l-352 161q-19 9 -8 31z" />
    <glyph glyph-name="Iacute" unicode="&#xcd;" horiz-adv-x="532" 
d="M217 27v1380q0 11 8.5 19t18.5 8h45q10 0 18 -8t8 -19v-1380q0 -12 -8.5 -19.5t-19.5 -7.5h-43q-10 0 -18.5 8t-8.5 19zM82 1628q-7 18 12 29l336 184q25 12 35 -6l20 -41q11 -22 -8 -31l-352 -161q-25 -11 -33 6z" />
    <glyph glyph-name="Icircumflex" unicode="&#xce;" horiz-adv-x="532" 
d="M217 27v1380q0 11 8.5 19t18.5 8h45q10 0 18 -8t8 -19v-1380q0 -12 -8.5 -19.5t-19.5 -7.5h-43q-10 0 -18.5 8t-8.5 19zM260 1839h6q11 0 21 -10l248 -201q19 -15 8 -29l-19 -22q-13 -17 -30 -4l-232 172l-229 -172q-18 -13 -31 4l-18 22q-11 14 8 29l248 201
q10 10 20 10z" />
    <glyph glyph-name="Idieresis" unicode="&#xcf;" horiz-adv-x="532" 
d="M410 1710q0 30 20 50t50 20t50.5 -20t20.5 -50t-20.5 -50t-50.5 -20t-50 20t-20 50zM217 27v1380q0 11 8.5 19t18.5 8h45q10 0 18 -8t8 -19v-1380q0 -12 -8.5 -19.5t-19.5 -7.5h-43q-10 0 -18.5 8t-8.5 19zM-18 1710q0 30 20 50t50 20t50.5 -20t20.5 -50t-20.5 -50
t-50.5 -20t-50 20t-20 50z" />
    <glyph glyph-name="Eth" unicode="&#xd0;" horiz-adv-x="1517" 
d="M319 88h347q131 0 248.5 48.5t201.5 132.5t133 201t49 270t-83 297t-228.5 226.5t-320.5 82.5h-347v-603h512q11 0 19 -8t8 -18v-12q0 -10 -8 -17.5t-19 -7.5h-512v-592zM127 707v10q0 11 7.5 18.5t17.5 7.5h71v664q0 11 7.5 19t17.5 8h434q146 0 279.5 -57t230 -153
t154 -228t57.5 -277q0 -196 -97 -361.5t-263 -261.5t-361 -96h-434q-10 0 -17.5 8t-7.5 19v653h-71q-10 0 -17.5 8t-7.5 19z" />
    <glyph glyph-name="Ntilde" unicode="&#xd1;" horiz-adv-x="1579" 
d="M672 1851q90 0 119.5 -46.5t55 -93t71.5 -46.5q77 0 116 121q3 10 12.5 14.5t18.5 -0.5l22 -8q18 -10 14 -24t-8.5 -28t-20 -43t-35 -51t-53 -39.5t-73.5 -17.5t-69.5 19.5t-46.5 47.5t-43.5 75t-71.5 47q-78 0 -117 -127q-7 -25 -31 -15l-24 11q-19 6 -12 28
q65 176 176 176zM1362 6q0 -26 -33 -26h-26q-14 0 -992 1292h-2v-1245q0 -11 -8 -19t-18 -8h-39q-10 0 -18.5 8t-8.5 19v1400q0 12 9.5 19.5t21.5 7.5h35l983 -1280h2v1233q0 11 8 19t18 8h41q11 0 19 -8t8 -19v-1401z" />
    <glyph glyph-name="Ograve" unicode="&#xd2;" horiz-adv-x="1705" 
d="M672 1794l20 41q10 18 35 6l336 -184q19 -11 12 -29l-10 -20q-8 -17 -33 -6l-352 161q-19 9 -8 31zM205 715q0 -176 86.5 -324.5t235.5 -234.5t325 -86t325.5 86t236.5 234.5t87 324.5t-87 325.5t-236.5 236.5t-325.5 87t-325 -87t-235.5 -236.5t-86.5 -325.5zM115 714
q0 152 58 289t156.5 236t234.5 157t288 58t289 -58t235.5 -157t156.5 -236t58 -289t-58 -288t-156.5 -233.5t-235.5 -155t-289 -57.5t-288 57.5t-234.5 155t-156.5 233.5t-58 288z" />
    <glyph glyph-name="Oacute" unicode="&#xd3;" horiz-adv-x="1705" 
d="M670 1628q-7 18 12 29l336 184q25 12 35 -6l20 -41q11 -22 -8 -31l-352 -161q-25 -11 -33 6zM205 715q0 -176 86.5 -324.5t235.5 -234.5t325 -86t325.5 86t236.5 234.5t87 324.5t-87 325.5t-236.5 236.5t-325.5 87t-325 -87t-235.5 -236.5t-86.5 -325.5zM115 714
q0 152 58 289t156.5 236t234.5 157t288 58t289 -58t235.5 -157t156.5 -236t58 -289t-58 -288t-156.5 -233.5t-235.5 -155t-289 -57.5t-288 57.5t-234.5 155t-156.5 233.5t-58 288z" />
    <glyph glyph-name="Ocircumflex" unicode="&#xd4;" horiz-adv-x="1705" 
d="M848 1839h6q10 0 20 -10l248 -201q19 -15 8 -29l-18 -22q-13 -17 -31 -4l-231 172l-229 -172q-18 -13 -31 4l-19 22q-11 13 9 29l247 201q10 10 21 10zM205 715q0 -176 86.5 -324.5t235.5 -234.5t325 -86t325.5 86t236.5 234.5t87 324.5t-87 325.5t-236.5 236.5
t-325.5 87t-325 -87t-235.5 -236.5t-86.5 -325.5zM115 714q0 152 58 289t156.5 236t234.5 157t288 58t289 -58t235.5 -157t156.5 -236t58 -289t-58 -288t-156.5 -233.5t-235.5 -155t-289 -57.5t-288 57.5t-234.5 155t-156.5 233.5t-58 288z" />
    <glyph glyph-name="Otilde" unicode="&#xd5;" horiz-adv-x="1705" 
d="M723 1851q90 0 119.5 -46.5t55 -93t71.5 -46.5q77 0 116 121q3 10 12.5 14.5t18.5 -0.5l23 -8q17 -8 13 -23t-8.5 -29t-20 -43t-34.5 -51t-52.5 -39.5t-73.5 -17.5t-69.5 19.5t-47 47.5t-44 75t-71.5 47q-78 0 -117 -127q-7 -25 -30 -15l-25 11q-19 6 -12 28
q65 176 176 176zM205 715q0 -176 86.5 -324.5t235.5 -234.5t325 -86t325.5 86t236.5 234.5t87 324.5t-87 325.5t-236.5 236.5t-325.5 87t-325 -87t-235.5 -236.5t-86.5 -325.5zM115 714q0 152 58 289t156.5 236t234.5 157t288 58t289 -58t235.5 -157t156.5 -236t58 -289
t-58 -288t-156.5 -233.5t-235.5 -155t-289 -57.5t-288 57.5t-234.5 155t-156.5 233.5t-58 288z" />
    <glyph glyph-name="Odieresis" unicode="&#xd6;" horiz-adv-x="1705" 
d="M997 1710q0 30 20.5 50t50.5 20t50.5 -20t20.5 -50t-20.5 -50t-50.5 -20t-50.5 20t-20.5 50zM569 1710q0 30 20.5 50t50.5 20t50.5 -20t20.5 -50t-20.5 -50t-50.5 -20t-50.5 20t-20.5 50zM205 715q0 -176 86.5 -324.5t235.5 -234.5t325 -86t325.5 86t236.5 234.5
t87 324.5t-87 325.5t-236.5 236.5t-325.5 87t-325 -87t-235.5 -236.5t-86.5 -325.5zM115 714q0 152 58 289t156.5 236t234.5 157t288 58t289 -58t235.5 -157t156.5 -236t58 -289t-58 -288t-156.5 -233.5t-235.5 -155t-289 -57.5t-288 57.5t-234.5 155t-156.5 233.5t-58 288z
" />
    <glyph glyph-name="multiply" unicode="&#xd7;" 
d="M178 445q0 11 8 18l248 248l-248 247q-6 8 -6 20t6 19l23 23q7 8 19 8t20 -8l248 -248l247 250q7 6 18.5 5.5t18.5 -7.5l25 -23q16 -20 0 -36l-248 -250l248 -248q7 -7 7 -19t-7 -18l-25 -23q-6 -8 -17.5 -8.5t-17.5 6.5l-249 250l-250 -248q-6 -7 -17.5 -7t-17.5 7
l-25 23q-8 8 -8 19z" />
    <glyph glyph-name="Oslash" unicode="&#xd8;" horiz-adv-x="1705" 
d="M1503 715q0 245 -164 430l-927 -903q180 -172 442 -172q176 0 325.5 86t236.5 234.5t87 324.5zM207 715q0 -247 160 -428l929 903q-187 174 -442 174q-176 0 -325 -87t-235.5 -236.5t-86.5 -325.5zM117 715q0 151 57.5 288t156 236t235 157t284.5 58q298 0 510 -201
l135 131q6 8 16.5 8t22.5 -12t12 -23t-8 -18l-133 -131q188 -216 188 -493q0 -152 -58 -288.5t-157 -234t-236 -155t-288 -57.5q-302 0 -508 196l-131 -127q-6 -7 -16.5 -7t-22.5 11t-12 22t8 19l129 127q-184 209 -184 494z" />
    <glyph glyph-name="Ugrave" unicode="&#xd9;" horiz-adv-x="1474" 
d="M573 1794l21 41q10 18 35 6l336 -184q19 -11 12 -29l-10 -20q-8 -17 -33 -6l-352 161q-20 10 -9 31zM201 522v885q0 11 8 19t18 8h43q10 0 18.5 -8t8.5 -19v-875q0 -202 118.5 -330t320.5 -128t322 127.5t120 328.5v877q0 27 28 27h41q11 0 19 -8t8 -19v-885
q0 -237 -148.5 -389.5t-389.5 -152.5t-388 152t-147 390z" />
    <glyph glyph-name="Uacute" unicode="&#xda;" horiz-adv-x="1474" 
d="M571 1628q-7 18 13 29l336 184q24 12 34 -6l21 -41q11 -22 -8 -31l-353 -161q-24 -11 -32 6zM201 522v885q0 11 8 19t18 8h43q10 0 18.5 -8t8.5 -19v-875q0 -202 118.5 -330t320.5 -128t322 127.5t120 328.5v877q0 27 28 27h41q11 0 19 -8t8 -19v-885
q0 -237 -148.5 -389.5t-389.5 -152.5t-388 152t-147 390z" />
    <glyph glyph-name="Ucircumflex" unicode="&#xdb;" horiz-adv-x="1474" 
d="M750 1839h6q10 0 20 -10l248 -201q19 -15 8 -29l-18 -22q-13 -17 -31 -4l-231 172l-230 -172q-17 -13 -30 4l-19 22q-11 14 8 29l248 201q10 10 21 10zM201 522v885q0 11 8 19t18 8h43q10 0 18.5 -8t8.5 -19v-875q0 -202 118.5 -330t320.5 -128t322 127.5t120 328.5v877
q0 27 28 27h41q11 0 19 -8t8 -19v-885q0 -237 -148.5 -389.5t-389.5 -152.5t-388 152t-147 390z" />
    <glyph glyph-name="Udieresis" unicode="&#xdc;" horiz-adv-x="1474" 
d="M899 1710q0 30 20.5 50t50.5 20t50 -20t20 -50t-20 -50t-50 -20t-50.5 20t-20.5 50zM471 1710q0 30 20.5 50t50.5 20t50 -20t20 -50t-20 -50t-50 -20t-50.5 20t-20.5 50zM201 522v885q0 11 8 19t18 8h43q10 0 18.5 -8t8.5 -19v-875q0 -202 118.5 -330t320.5 -128
t322 127.5t120 328.5v877q0 27 28 27h41q11 0 19 -8t8 -19v-885q0 -237 -148.5 -389.5t-389.5 -152.5t-388 152t-147 390z" />
    <glyph glyph-name="Yacute" unicode="&#xdd;" horiz-adv-x="1146" 
d="M365 1628q-7 18 12 29l336 184q25 12 35 -6l20 -41q11 -22 -8 -31l-352 -161q-25 -11 -33 6zM12 1434h62q16 0 26 -13l467 -637l475 637q10 13 27 13h61q15 0 20.5 -9.5t-3.5 -21.5l-533 -705v-671q0 -11 -8 -19t-14 -8t-15.5 -0.5t-14.5 0t-24.5 1.5t-19.5 26v669
l-522 707q-9 12 -4 21.5t20 9.5z" />
    <glyph glyph-name="Thorn" unicode="&#xde;" horiz-adv-x="1220" 
d="M313 350h367q152 0 261.5 109.5t109.5 262.5t-110 257t-263 104h-365v-733zM217 27v1380q0 11 8.5 19t18.5 8h43q10 0 18 -8t8 -19v-227h371q125 0 231.5 -61.5t169 -167t62.5 -230.5t-62.5 -232t-168.5 -169t-230 -62h-373v-231q0 -11 -9 -19t-23 -8h-37q-10 0 -18.5 8
t-8.5 19z" />
    <glyph glyph-name="germandbls" unicode="&#xdf;" horiz-adv-x="1134" 
d="M178 0q-22 0 -22 27v813q0 304 111 459t325 155q141 0 245.5 -75.5t104.5 -239.5q0 -64 -28 -132.5t-90 -153.5t-62 -132q0 -21 30.5 -51.5t73.5 -67.5t117 -112.5t74 -210.5q0 -219 -137.5 -259t-193.5 -40t-109.5 7t-89.5 26.5t-31 35.5l12 39q9 26 32 14
q80 -43 181 -43t172.5 58t71.5 164t-75.5 177t-150.5 136t-75 127t93 190.5t93 215.5q0 86 -55 165.5t-215 79.5q-159 0 -246.5 -134t-87.5 -398v-813q0 -27 -27 -27h-41z" />
    <glyph glyph-name="agrave" unicode="&#xe0;" horiz-adv-x="874" 
d="M279 1337l20 41q10 18 35 6l336 -184q19 -11 12 -29l-10 -20q-8 -17 -33 -6l-352 162q-18 9 -8 30zM174 256q0 -90 54 -143.5t140 -53.5t162 40.5t111 86.5v226q-97 43 -211 43t-185 -54.5t-71 -144.5zM90 250q0 122 93 200t251 78q104 0 207 -36q0 181 -44.5 225.5
t-158.5 44.5t-223 -55q-24 -9 -31 16l-10 25q-7 22 12 30q33 23 119.5 42.5t150.5 19.5t104.5 -9.5t67.5 -24.5t55 -55.5t36 -103t8 -166.5v-454q0 -11 -8.5 -19t-18.5 -8h-24q-18 0 -25 23l-8 73q-123 -116 -285 -116q-116 0 -192 74t-76 196z" />
    <glyph glyph-name="aacute" unicode="&#xe1;" horiz-adv-x="874" 
d="M272 1178q-7 17 13 28l338 178q23 14 34 -6l21 -41q11 -22 -19 -37l-346 -157q-14 -5 -18.5 -3.5t-9.5 11.5zM174 256q0 -90 54 -143.5t140 -53.5t162 40.5t111 86.5v226q-97 43 -211 43t-185 -54.5t-71 -144.5zM90 250q0 122 93 200t251 78q104 0 207 -36
q0 181 -44.5 225.5t-158.5 44.5t-223 -55q-24 -9 -31 16l-10 25q-7 22 12 30q33 23 119.5 42.5t150.5 19.5t104.5 -9.5t67.5 -24.5t55 -55.5t36 -103t8 -166.5v-454q0 -11 -8.5 -19t-18.5 -8h-24q-18 0 -25 23l-8 73q-123 -116 -285 -116q-116 0 -192 74t-76 196z" />
    <glyph glyph-name="acircumflex" unicode="&#xe2;" horiz-adv-x="874" 
d="M174 256q0 -90 54 -143.5t140 -53.5t162 40.5t111 86.5v226q-97 43 -211 43t-185 -54.5t-71 -144.5zM434 1393h6q10 0 21 -11l248 -200q19 -15 8 -29l-19 -23q-13 -17 -30 -4l-232 172l-229 -172q-18 -13 -31 4l-18 23q-11 14 8 29l248 200q11 11 20 11zM90 250
q0 122 93 200t251 78q104 0 207 -36q0 181 -44.5 225.5t-158.5 44.5t-223 -55q-24 -9 -31 16l-10 25q-7 22 12 30q33 23 119.5 42.5t150.5 19.5t104.5 -9.5t67.5 -24.5t55 -55.5t36 -103t8 -166.5v-454q0 -11 -8.5 -19t-18.5 -8h-24q-18 0 -25 23l-8 73q-123 -116 -285 -116
q-116 0 -192 74t-76 196z" />
    <glyph glyph-name="atilde" unicode="&#xe3;" horiz-adv-x="874" 
d="M174 256q0 -90 54 -143.5t140 -53.5t162 40.5t111 86.5v226q-97 43 -211 43t-185 -54.5t-71 -144.5zM299 1401q89 0 119 -46.5t55.5 -93.5t71.5 -47q78 0 117 121q3 10 12 14.5t18 0.5l23 -9q17 -9 13 -23t-8.5 -28t-20 -43t-34.5 -51t-52.5 -39.5t-73.5 -17.5
t-69.5 19.5t-47 47t-44 74.5t-71.5 47q-78 0 -117 -127q-7 -24 -30 -14l-25 10q-19 6 -12 29q65 176 176 176zM90 250q0 122 93 200t251 78q104 0 207 -36q0 181 -44.5 225.5t-158.5 44.5t-223 -55q-24 -9 -31 16l-10 25q-7 22 12 30q33 23 119.5 42.5t150.5 19.5
t104.5 -9.5t67.5 -24.5t55 -55.5t36 -103t8 -166.5v-454q0 -11 -8.5 -19t-18.5 -8h-24q-18 0 -25 23l-8 73q-123 -116 -285 -116q-116 0 -192 74t-76 196z" />
    <glyph glyph-name="adieresis" unicode="&#xe4;" horiz-adv-x="874" 
d="M592 1290q0 30 19 50t49 20t50.5 -20t20.5 -50t-20.5 -49.5t-50.5 -19.5t-49 19.5t-19 49.5zM199 1290q0 30 20 50t50 20t49.5 -20t19.5 -50t-20 -49.5t-50 -19.5t-49.5 19.5t-19.5 49.5zM174 256q0 -90 54 -143.5t140 -53.5t162 40.5t111 86.5v226q-97 43 -211 43
t-185 -54.5t-71 -144.5zM90 250q0 122 93 200t251 78q104 0 207 -36q0 181 -44.5 225.5t-158.5 44.5t-223 -55q-24 -9 -31 16l-10 25q-7 22 12 30q33 23 119.5 42.5t150.5 19.5t104.5 -9.5t67.5 -24.5t55 -55.5t36 -103t8 -166.5v-454q0 -11 -8.5 -19t-18.5 -8h-24
q-18 0 -25 23l-8 73q-123 -116 -285 -116q-116 0 -192 74t-76 196z" />
    <glyph glyph-name="aring" unicode="&#xe5;" horiz-adv-x="874" 
d="M287 1235q0 -61 45.5 -106.5t106.5 -45.5t106 45.5t45 106.5t-45 106t-106 45t-106.5 -45t-45.5 -106zM221 1235q0 92 63.5 155.5t155.5 63.5t154.5 -63.5t62.5 -155.5t-62.5 -154.5t-154.5 -62.5t-155.5 62.5t-63.5 154.5zM174 256q0 -90 54 -143.5t140 -53.5t162 40.5
t111 86.5v226q-97 43 -211 43t-185 -54.5t-71 -144.5zM90 250q0 122 93 200t251 78q104 0 207 -36q0 181 -44.5 225.5t-158.5 44.5t-223 -55q-24 -9 -31 16l-10 25q-7 22 12 30q33 23 119.5 42.5t150.5 19.5t104.5 -9.5t67.5 -24.5t55 -55.5t36 -103t8 -166.5v-454
q0 -11 -8.5 -19t-18.5 -8h-24q-18 0 -25 23l-8 73q-123 -116 -285 -116q-116 0 -192 74t-76 196z" />
    <glyph glyph-name="ae" unicode="&#xe6;" horiz-adv-x="1443" 
d="M721 459h547q0 127 -74.5 213t-206.5 86q-87 0 -156 -38.5t-110 -105.5v-155zM174 252q0 -92 60 -142.5t144 -50.5t158 36.5t107 80.5v246q-109 31 -216 31t-180 -54.5t-73 -146.5zM721 213q93 -152 293 -152q108 0 221 76q25 17 37 0l20 -28q10 -15 -16 -41t-113 -57
t-176 -31q-185 0 -299 139q-46 -55 -134 -97t-198 -42t-187 75t-77 198t90 198t237 75t222 -26q0 182 -43.5 221t-148.5 39t-171 -27.5t-67 -27.5q-24 -7 -31 16l-8 33q-3 19 18 26q42 23 125 41.5t170 18.5q175 0 222 -121q111 121 276 121t270 -106t105 -269
q0 -60 -10 -70t-21 -10h-606v-172z" />
    <glyph glyph-name="ccedilla" unicode="&#xe7;" horiz-adv-x="944" 
d="M96 390q0 140 59 239.5t157.5 155t209.5 55.5t190.5 -41t116.5 -88q17 -20 -4 -37l-20 -21q-19 -19 -43 4q-26 30 -89 62.5t-147 32.5q-141 0 -239.5 -97.5t-98.5 -243.5t99 -245.5t242 -99.5t251 120q20 23 39 4l23 -20q17 -18 5 -36q-26 -41 -112 -97.5t-209 -56.5h-14
v-91q98 -11 158.5 -61t60.5 -135t-58.5 -143t-128.5 -58t-114 22t-59 47t2 38l20 16q15 12 33 -6q38 -43 98 -43t93.5 35.5t33.5 87.5q0 118 -188 139q-25 6 -25 27v135q-148 30 -245 145t-97 255z" />
    <glyph glyph-name="egrave" unicode="&#xe8;" horiz-adv-x="956" 
d="M297 1337l20 41q10 18 35 6l336 -184q19 -11 12 -29l-10 -20q-8 -17 -33 -6l-352 162q-18 9 -8 30zM780 459q0 127 -74 213t-206 86t-218 -85t-94 -214h592zM96 410q0 183 111 306.5t283 123.5t276 -106t104 -269q0 -60 -9.5 -70t-20.5 -10h-654q6 -135 95.5 -229.5
t221.5 -94.5t245 76q24 15 36 0l21 -28q11 -15 -15 -41t-113.5 -57t-176.5 -31q-183 0 -293.5 123.5t-110.5 306.5z" />
    <glyph glyph-name="eacute" unicode="&#xe9;" horiz-adv-x="956" 
d="M297 1178q-7 17 12 28l338 178q24 14 35 -6l20 -41q11 -22 -18 -37l-346 -157q-14 -5 -19 -3.5t-10 11.5zM780 459q0 127 -74 213t-206 86t-218 -85t-94 -214h592zM96 410q0 183 111 306.5t283 123.5t276 -106t104 -269q0 -60 -9.5 -70t-20.5 -10h-654
q6 -135 95.5 -229.5t221.5 -94.5t245 76q24 15 36 0l21 -28q11 -15 -15 -41t-113.5 -57t-176.5 -31q-183 0 -293.5 123.5t-110.5 306.5z" />
    <glyph glyph-name="ecircumflex" unicode="&#xea;" horiz-adv-x="956" 
d="M494 1393h6q9 0 20 -11l248 -200q19 -15 8 -29l-18 -23q-13 -17 -31 -4l-231 172l-230 -172q-17 -13 -30 4l-19 23q-11 14 8 29l248 200q11 11 21 11zM780 459q0 127 -74 213t-206 86t-218 -85t-94 -214h592zM96 410q0 183 111 306.5t283 123.5t276 -106t104 -269
q0 -60 -9.5 -70t-20.5 -10h-654q6 -135 95.5 -229.5t221.5 -94.5t245 76q24 15 36 0l21 -28q11 -15 -15 -41t-113.5 -57t-176.5 -31q-183 0 -293.5 123.5t-110.5 306.5z" />
    <glyph glyph-name="edieresis" unicode="&#xeb;" horiz-adv-x="956" 
d="M625 1290q0 30 19 50t49 20t50.5 -20t20.5 -50t-20.5 -49.5t-50.5 -19.5t-49 19.5t-19 49.5zM231 1290q0 30 20.5 50t50.5 20t49.5 -20t19.5 -50t-19.5 -49.5t-49.5 -19.5t-50.5 19.5t-20.5 49.5zM780 459q0 127 -74 213t-206 86t-218 -85t-94 -214h592zM96 410
q0 183 111 306.5t283 123.5t276 -106t104 -269q0 -60 -9.5 -70t-20.5 -10h-654q6 -135 95.5 -229.5t221.5 -94.5t245 76q24 15 36 0l21 -28q11 -15 -15 -41t-113.5 -57t-176.5 -31q-183 0 -293.5 123.5t-110.5 306.5z" />
    <glyph glyph-name="igrave" unicode="&#xec;" horiz-adv-x="401" 
d="M156 27v766q0 11 8 18.5t18 7.5h37q11 0 19 -8t8 -18v-766q0 -12 -9 -19.5t-20 -7.5h-35q-10 0 -18 8t-8 19zM0 1337l20 41q10 18 35 6l336 -184q19 -11 12 -29l-10 -20q-8 -17 -33 -6l-352 162q-18 9 -8 30z" />
    <glyph glyph-name="iacute" unicode="&#xed;" horiz-adv-x="401" 
d="M156 27v766q0 11 8 18.5t18 7.5h37q11 0 19 -8t8 -18v-766q0 -12 -9 -19.5t-20 -7.5h-35q-10 0 -18 8t-8 19zM0 1178q-7 17 12 28l338 178q24 14 35 -6l21 -41q11 -22 -19 -37l-346 -157q-14 -5 -19 -3.5t-10 11.5z" />
    <glyph glyph-name="icircumflex" unicode="&#xee;" horiz-adv-x="401" 
d="M156 27v766q0 11 8 18.5t18 7.5h37q11 0 19 -8t8 -18v-766q0 -12 -9 -19.5t-20 -7.5h-35q-10 0 -18 8t-8 19zM197 1393h6q9 0 20 -11l248 -200q19 -15 8 -29l-18 -23q-13 -17 -31 -4l-231 172l-230 -172q-17 -13 -30 4l-19 23q-11 14 8 29l248 200q11 11 21 11z" />
    <glyph glyph-name="idieresis" unicode="&#xef;" horiz-adv-x="401" 
d="M328 1290q0 30 19 50t49 20t50.5 -20t20.5 -50t-20.5 -49.5t-50.5 -19.5t-49 19.5t-19 49.5zM156 27v766q0 11 8 18.5t18 7.5h37q11 0 19 -8t8 -18v-766q0 -12 -9 -19.5t-20 -7.5h-35q-10 0 -18 8t-8 19zM-66 1290q0 30 20.5 50t50.5 20t49.5 -20t19.5 -50t-20 -49.5
t-50 -19.5t-50 19.5t-20 49.5z" />
    <glyph glyph-name="eth" unicode="&#xf0;" horiz-adv-x="1132" 
d="M180 448q0 -158 107.5 -270t259.5 -112q223 0 306 163t83 320q0 21 -4 61q-23 31 -114.5 118t-286.5 87q-139 0 -245 -104.5t-106 -262.5zM90 454q0 130 63 233.5t163 157.5t196 54q171 0 271.5 -62t131.5 -104q-43 255 -290 455l-236 -137q-22 -12 -38 15q-17 27 5 40
l213 123q-136 93 -245 135q-25 9 -13 33l15 35q7 17 28 10q155 -58 297 -166l142 82q21 12 38 -14t-6 -41l-118 -70q319 -274 319 -670q0 -351 -162.5 -467t-300.5 -116t-243.5 63t-167.5 172t-62 239z" />
    <glyph glyph-name="ntilde" unicode="&#xf1;" horiz-adv-x="1013" 
d="M377 1401q89 0 119 -46.5t55.5 -93.5t71.5 -47q77 0 116 121q3 10 12.5 15t18.5 0l23 -9q17 -9 13 -23t-8.5 -28t-20 -43t-35 -51t-53 -39.5t-73.5 -17.5t-69.5 19.5t-46.5 47t-43.5 74.5t-71.5 47q-78 0 -117 -127q-7 -24 -30 -14l-25 10q-19 6 -12 29q65 176 176 176z
M178 0q-22 0 -22 27v766q0 11 8 18.5t20 7.5h21q21 0 24 -20l9 -88q31 33 109.5 81t193.5 48q167 0 248 -98.5t81 -276.5v-438q0 -11 -8 -19t-18 -8h-37q-11 0 -19 8t-8 19v438q0 140 -62.5 213.5t-183.5 73.5t-199 -62t-91 -80v-583q0 -27 -27 -27h-39z" />
    <glyph glyph-name="ograve" unicode="&#xf2;" horiz-adv-x="1011" 
d="M303 1337l21 41q10 18 34 6l336 -184q20 -11 13 -29l-11 -20q-8 -17 -32 -6l-353 162q-18 9 -8 30zM182 410q0 -144 94 -245.5t230 -101.5t228.5 101.5t92.5 245.5t-93.5 244t-228.5 100t-229 -100t-94 -244zM94 410q0 178 120 304t292 126t292 -126t120 -304t-120 -304
t-292 -126t-292 126t-120 304z" />
    <glyph glyph-name="oacute" unicode="&#xf3;" horiz-adv-x="1011" 
d="M303 1178q-7 17 12 28l338 178q24 14 35 -6l21 -41q11 -22 -19 -37l-346 -157q-14 -5 -19 -3.5t-10 11.5zM182 410q0 -144 94 -245.5t230 -101.5t228.5 101.5t92.5 245.5t-93.5 244t-228.5 100t-229 -100t-94 -244zM94 410q0 178 120 304t292 126t292 -126t120 -304
t-120 -304t-292 -126t-292 126t-120 304z" />
    <glyph glyph-name="ocircumflex" unicode="&#xf4;" horiz-adv-x="1011" 
d="M500 1393h6q9 0 20 -11l248 -200q19 -15 8 -29l-18 -23q-13 -17 -31 -4l-231 172l-230 -172q-17 -13 -30 4l-19 23q-11 14 8 29l248 200q11 11 21 11zM182 410q0 -144 94 -245.5t230 -101.5t228.5 101.5t92.5 245.5t-93.5 244t-228.5 100t-229 -100t-94 -244zM94 410
q0 178 120 304t292 126t292 -126t120 -304t-120 -304t-292 -126t-292 126t-120 304z" />
    <glyph glyph-name="otilde" unicode="&#xf5;" horiz-adv-x="1011" 
d="M379 1401q89 0 119 -46.5t55.5 -93.5t71.5 -47q77 0 116 121q3 10 12.5 15t18.5 0l23 -9q17 -9 13 -23t-8.5 -28t-20 -43t-35 -51t-53 -39.5t-73.5 -17.5t-69.5 19.5t-46.5 47t-43.5 74.5t-71.5 47q-78 0 -117 -127q-7 -24 -30 -14l-25 10q-20 6 -12 29q65 176 176 176z
M182 410q0 -144 94 -245.5t230 -101.5t228.5 101.5t92.5 245.5t-93.5 244t-228.5 100t-229 -100t-94 -244zM94 410q0 178 120 304t292 126t292 -126t120 -304t-120 -304t-292 -126t-292 126t-120 304z" />
    <glyph glyph-name="odieresis" unicode="&#xf6;" horiz-adv-x="1011" 
d="M631 1290q0 30 19 50t49 20t50.5 -20t20.5 -50t-20.5 -49.5t-50.5 -19.5t-49 19.5t-19 49.5zM238 1290q0 30 20 50t50 20t49.5 -20t19.5 -50t-19.5 -49.5t-49.5 -19.5t-50 19.5t-20 49.5zM182 410q0 -144 94 -245.5t230 -101.5t228.5 101.5t92.5 245.5t-93.5 244
t-228.5 100t-229 -100t-94 -244zM94 410q0 178 120 304t292 126t292 -126t120 -304t-120 -304t-292 -126t-292 126t-120 304z" />
    <glyph glyph-name="divide" unicode="&#xf7;" horiz-adv-x="1198" 
d="M508 1032q0 34 25 58t59 24t58 -24t24 -58t-24 -59t-58 -25t-59 25t-25 59zM508 389q0 34 25 58t59 24t58 -24t24 -58t-24 -59t-58 -25t-59 25t-25 59zM178 696v31q0 11 8 19t19 8h788q10 0 17.5 -8t7.5 -19v-31q0 -11 -7.5 -18.5t-17.5 -7.5h-788q-11 0 -19 8t-8 18z
" />
    <glyph glyph-name="oslash" unicode="&#xf8;" horiz-adv-x="1009" 
d="M509 63q132 0 225 100.5t93 228.5t-61 218l-483 -450q94 -97 226 -97zM184 424q0 -128 58 -215l483 450q-92 95 -223 95t-224.5 -101t-93.5 -229zM94 426q0 160 120 287t288 127t286 -119l48 45q8 8 17 8t23 -12t14 -23t-9 -18l-50 -49q84 -118 84 -280t-118.5 -287
t-288.5 -125t-289 118l-35 -35q-21 -18 -43 11q-9 7 -9.5 18.5t7.5 18.5l37 36q-82 119 -82 279z" />
    <glyph glyph-name="ugrave" unicode="&#xf9;" 
d="M307 1337l21 41q10 18 34 6l336 -184q20 -11 13 -29l-11 -20q-8 -17 -32 -6l-353 162q-18 9 -8 30zM145 352v441q0 10 8 18t19 8h37q11 0 19 -8t8 -18v-441q0 -141 62.5 -213.5t183.5 -72.5t186 58.5t82 84.5v584q0 26 26 26h37q11 0 19 -8t8 -18v-766q0 -11 -8 -19
t-19 -8h-25q-20 0 -24 25l-8 79q-26 -33 -97 -78.5t-186 -45.5q-328 0 -328 372z" />
    <glyph glyph-name="uacute" unicode="&#xfa;" 
d="M307 1178q-7 17 12 28l338 178q24 14 35 -6l21 -41q11 -22 -19 -37l-346 -157q-14 -5 -19 -3.5t-10 11.5zM145 352v441q0 10 8 18t19 8h37q11 0 19 -8t8 -18v-441q0 -141 62.5 -213.5t183.5 -72.5t186 58.5t82 84.5v584q0 26 26 26h37q11 0 19 -8t8 -18v-766
q0 -11 -8 -19t-19 -8h-25q-20 0 -24 25l-8 79q-26 -33 -97 -78.5t-186 -45.5q-328 0 -328 372z" />
    <glyph glyph-name="ucircumflex" unicode="&#xfb;" 
d="M494 1393h6q9 0 20 -11l248 -200q19 -15 8 -29l-18 -23q-13 -17 -31 -4l-231 172l-230 -172q-17 -13 -30 4l-19 23q-11 14 8 29l248 200q11 11 21 11zM145 352v441q0 10 8 18t19 8h37q11 0 19 -8t8 -18v-441q0 -141 62.5 -213.5t183.5 -72.5t186 58.5t82 84.5v584
q0 26 26 26h37q11 0 19 -8t8 -18v-766q0 -11 -8 -19t-19 -8h-25q-20 0 -24 25l-8 79q-26 -33 -97 -78.5t-186 -45.5q-328 0 -328 372z" />
    <glyph glyph-name="udieresis" unicode="&#xfc;" 
d="M633 1290q0 30 19 50t49 20t50.5 -20t20.5 -50t-20.5 -49.5t-50.5 -19.5t-49 19.5t-19 49.5zM240 1290q0 30 20 50t50 20t49.5 -20t19.5 -50t-19.5 -49.5t-49.5 -19.5t-50 19.5t-20 49.5zM145 352v441q0 10 8 18t19 8h37q11 0 19 -8t8 -18v-441q0 -141 62.5 -213.5
t183.5 -72.5t186 58.5t82 84.5v584q0 26 26 26h37q11 0 19 -8t8 -18v-766q0 -11 -8 -19t-19 -8h-25q-20 0 -24 25l-8 79q-26 -33 -97 -78.5t-186 -45.5q-328 0 -328 372z" />
    <glyph glyph-name="yacute" unicode="&#xfd;" horiz-adv-x="907" 
d="M264 1178q-7 17 12 28l338 178q24 14 35 -6l21 -41q11 -22 -19 -37l-346 -157q-14 -5 -19 -3.5t-10 11.5zM43 819h45q18 0 27 -18l350 -692h4l319 692q9 18 27 18h45q13 0 16 -10.5t-4 -22.5l-643 -1384q-6 -16 -26 -16h-47q-27 0 -15 28l277 594l-387 778q-7 12 -4 22.5
t16 10.5z" />
    <glyph glyph-name="thorn" unicode="&#xfe;" 
d="M477 66q148 0 241 97t93 244t-87.5 248t-213.5 101q-127 0 -190.5 -50t-73.5 -67v-475q4 -8 29.5 -29t82.5 -45t119 -24zM519 840q155 0 267.5 -126t112.5 -308t-116 -304t-296 -122q-144 0 -243 86v-654q0 -10 -8 -18t-19 -8h-35q-10 0 -18 8t-8 18v1995q0 12 8.5 19.5
t19.5 7.5h33q11 0 19 -8t8 -19v-664q120 97 275 97z" />
    <glyph glyph-name="ydieresis" unicode="&#xff;" horiz-adv-x="907" 
d="M594 1290q0 30 19.5 50t49.5 20t50 -20t20 -50t-20.5 -49.5t-50.5 -19.5t-49 19.5t-19 49.5zM201 1290q0 30 20 50t50 20t49.5 -20t19.5 -50t-20 -49.5t-50 -19.5t-49.5 19.5t-19.5 49.5zM43 819h45q18 0 27 -18l350 -692h4l319 692q9 18 27 18h45q13 0 16 -10.5
t-4 -22.5l-643 -1384q-6 -16 -26 -16h-47q-27 0 -15 28l277 594l-387 778q-7 12 -4 22.5t16 10.5z" />
    <glyph glyph-name="OE" unicode="&#x152;" horiz-adv-x="1998" 
d="M203 715q0 -176 86.5 -324.5t235.5 -234.5t325 -86q77 0 143 14v1262q-75 16 -143 16q-176 0 -325 -86.5t-235.5 -235.5t-86.5 -325zM115 690q0 126 26 222t98 220t240.5 223t370.5 99q77 0 174 -20h817q10 0 17.5 -8t7.5 -19v-35q0 -11 -7.5 -18.5t-17.5 -7.5h-749v-566
h649q11 0 18.5 -8t7.5 -18v-35q0 -11 -8 -19t-18 -8h-649v-606h749q10 0 17.5 -8t7.5 -19v-32q0 -11 -7.5 -19t-17.5 -8h-815q-97 -20 -176 -20q-152 0 -288.5 57.5t-234 155t-155 234.5t-57.5 263z" />
    <glyph glyph-name="oe" unicode="&#x153;" horiz-adv-x="1613" 
d="M877 453h561q0 127 -75.5 215t-207.5 88q-88 0 -166.5 -45.5t-111.5 -120.5v-137zM182 410q0 -144 93.5 -245.5t228.5 -101.5q94 0 177 57t112 124v348q-38 61 -117.5 111.5t-171.5 50.5q-134 0 -228 -100t-94 -244zM1155 -20q-198 0 -326 170q-58 -80 -142 -125
t-183 -45q-172 0 -291 126t-119 306q0 115 54 213.5t149 156.5t201 58t194.5 -43.5t145.5 -120.5q110 164 317 164q160 0 266.5 -107.5t106.5 -273.5q0 -80 -31 -80h-620v-135q33 -72 113 -127.5t190 -55.5t223 76q25 17 37 0l20 -28q10 -15 -16 -41t-113 -57t-176 -31z" />
    <glyph glyph-name="Ydieresis" unicode="&#x178;" horiz-adv-x="1146" 
d="M713 1710q0 30 20 50t50 20t50.5 -20t20.5 -50t-21 -50t-51 -20t-49.5 20t-19.5 50zM285 1710q0 30 20 50t50 20t50.5 -20t20.5 -50t-21 -50t-51 -20t-49.5 20t-19.5 50zM12 1434h62q16 0 26 -13l467 -637l475 637q10 13 27 13h61q15 0 20.5 -9.5t-3.5 -21.5l-533 -705
v-671q0 -11 -8 -19t-14 -8t-15.5 -0.5t-14.5 0t-24.5 1.5t-19.5 26v669l-522 707q-9 12 -4 21.5t20 9.5z" />
    <glyph glyph-name="circumflex" unicode="&#x2c6;" horiz-adv-x="763" 
d="M375 1393h6q9 0 20 -11l248 -200q19 -15 8 -29l-18 -23q-13 -17 -31 -4l-231 172l-230 -172q-17 -13 -30 4l-19 23q-11 14 8 29l248 200q11 11 21 11z" />
    <glyph glyph-name="tilde" unicode="&#x2dc;" horiz-adv-x="778" 
d="M248 1401q89 0 119 -46.5t55.5 -93.5t71.5 -47q77 0 116 121q3 10 12.5 15t18.5 0l23 -9q16 -9 12 -23l-8 -28t-19.5 -43t-35 -51t-53 -39.5t-73.5 -17.5t-69.5 19.5t-46.5 47t-43.5 74.5t-71.5 47q-78 0 -117 -127q-7 -24 -30 -14l-25 10q-20 6 -12 29q65 176 176 176z
" />
    <glyph glyph-name="uni2000" unicode="&#x2000;" horiz-adv-x="990" 
 />
    <glyph glyph-name="uni2001" unicode="&#x2001;" horiz-adv-x="1980" 
 />
    <glyph glyph-name="uni2002" unicode="&#x2002;" horiz-adv-x="990" 
 />
    <glyph glyph-name="uni2003" unicode="&#x2003;" horiz-adv-x="1980" 
 />
    <glyph glyph-name="uni2004" unicode="&#x2004;" horiz-adv-x="660" 
 />
    <glyph glyph-name="uni2005" unicode="&#x2005;" horiz-adv-x="495" 
 />
    <glyph glyph-name="uni2006" unicode="&#x2006;" horiz-adv-x="330" 
 />
    <glyph glyph-name="uni2007" unicode="&#x2007;" horiz-adv-x="330" 
 />
    <glyph glyph-name="uni2008" unicode="&#x2008;" horiz-adv-x="247" 
 />
    <glyph glyph-name="uni2009" unicode="&#x2009;" horiz-adv-x="396" 
 />
    <glyph glyph-name="uni200A" unicode="&#x200a;" horiz-adv-x="110" 
 />
    <glyph glyph-name="uni2010" unicode="&#x2010;" horiz-adv-x="978" 
d="M233 522q0 27 25 27h463q11 1 19 -7t8 -20v-22q0 -10 -8 -18t-19 -9h-463q-10 0 -18 8t-7 19v22z" />
    <glyph glyph-name="uni2011" unicode="&#x2011;" horiz-adv-x="978" 
d="M233 522q0 27 25 27h463q11 1 19 -7t8 -20v-22q0 -10 -8 -18t-19 -9h-463q-10 0 -18 8t-7 19v22z" />
    <glyph glyph-name="figuredash" unicode="&#x2012;" horiz-adv-x="978" 
d="M233 522q0 27 25 27h463q11 1 19 -7t8 -20v-22q0 -10 -8 -18t-19 -9h-463q-10 0 -18 8t-7 19v22z" />
    <glyph glyph-name="endash" unicode="&#x2013;" horiz-adv-x="1318" 
d="M1079 502q0 -25 -26 -25h-787q-11 0 -18.5 7.5t-7.5 17.5v16q0 11 8 19t18 8h787q26 0 26 -27v-16z" />
    <glyph glyph-name="emdash" unicode="&#x2014;" horiz-adv-x="1765" 
d="M1526 502q0 -25 -27 -25h-1233q-11 0 -18.5 7.5t-7.5 17.5v16q0 11 8 19t18 8h1233q12 0 19.5 -8t7.5 -19v-16z" />
    <glyph glyph-name="quoteleft" unicode="&#x2018;" horiz-adv-x="387" 
d="M88 1140q0 136 54.5 208t85.5 90q31 19 42 6l17 -21q13 -17 -19 -41q-93 -71 -104 -186q-3 -46 10 -78q17 10 44 10t49 -23.5t22 -58.5t-23.5 -57t-67.5 -22t-77 48.5t-33 124.5z" />
    <glyph glyph-name="quoteright" unicode="&#x2019;" horiz-adv-x="387" 
d="M104 1375q0 35 23 57t67 22t77.5 -48.5t33.5 -124.5q0 -135 -53.5 -207t-85.5 -92q-32 -19 -43 -5l-17 20q-14 17 9 33q1 0 3 2q100 75 111 193q3 46 -10 78q-19 -11 -45 -11t-48 24t-22 59z" />
    <glyph glyph-name="quotesinglbase" unicode="&#x201a;" horiz-adv-x="468" 
d="M143 60q0 35 23.5 57t67.5 22t77 -48.5t33 -124.5q0 -135 -53.5 -207t-85.5 -92q-32 -19 -43 -5l-17 21q-13 16 9 32q1 0 3 2q100 75 111 193q3 46 -10 78q-18 -11 -44 -11t-48.5 24t-22.5 59z" />
    <glyph glyph-name="quotedblleft" unicode="&#x201c;" horiz-adv-x="755" 
d="M457 1142q0 135 53.5 207t85.5 92q32 19 43 5l16 -21q13 -17 -19 -41q-93 -71 -104 -186q-3 -43 11 -78q17 10 43 10t48.5 -23.5t22.5 -58.5t-23.5 -57t-67.5 -22t-76.5 48.5t-32.5 124.5zM90 1142q0 136 54.5 208t85.5 90q31 19 42 6l17 -21q13 -17 -19 -41
q-93 -71 -104 -186q-3 -46 10 -78q17 10 44 10t49 -23.5t22 -58.5t-23.5 -57t-67.5 -22t-77 48.5t-33 124.5z" />
    <glyph glyph-name="quotedblright" unicode="&#x201d;" horiz-adv-x="753" 
d="M471 1375q0 35 23.5 57t67.5 22t77 -48.5t33 -124.5q0 -136 -54.5 -208t-85.5 -91q-32 -19 -43 -5l-16 20q-13 17 19 42q93 72 104 186q3 46 -10 78q-18 -11 -44 -11t-48.5 24t-22.5 59zM104 1375q0 35 23 57t67 22t77.5 -48.5t33.5 -124.5q0 -135 -53.5 -207t-85.5 -92
q-32 -19 -43 -5l-17 20q-14 17 9 33q1 0 3 2q100 75 111 193q3 46 -10 78q-19 -11 -45 -11t-48 24t-22 59z" />
    <glyph glyph-name="quotedblbase" unicode="&#x201e;" horiz-adv-x="835" 
d="M510 60q0 35 23 57t67 22t77.5 -48.5t33.5 -124.5q0 -136 -54.5 -208t-85.5 -91q-32 -19 -43 -5l-16 21q-13 17 19 41q93 71 104 186q3 46 -10 78q-19 -11 -45 -11t-48 24t-22 59zM143 60q0 35 23.5 57t67.5 22t77 -48.5t33 -124.5q0 -135 -53.5 -207t-85.5 -92
q-32 -19 -43 -5l-17 21q-13 16 9 32q1 0 3 2q100 75 111 193q3 46 -10 78q-18 -11 -44 -11t-48.5 24t-22.5 59z" />
    <glyph glyph-name="bullet" unicode="&#x2022;" horiz-adv-x="724" 
d="M213 462q0 62 42.5 106t104.5 44t106 -44t44 -106t-44 -104.5t-106 -42.5t-104.5 42.5t-42.5 104.5z" />
    <glyph glyph-name="ellipsis" unicode="&#x2026;" horiz-adv-x="1277" 
d="M952 63q0 34 24 58t58 24t58 -24t24 -58t-24 -58.5t-58 -24.5t-58 24.5t-24 58.5zM553 63q0 34 24.5 58t58.5 24t57.5 -24t23.5 -58t-23.5 -58.5t-57.5 -24.5t-58.5 24.5t-24.5 58.5zM160 63q0 34 25 58t59 24t58 -24t24 -58t-24 -58.5t-58 -24.5t-59 24.5t-25 58.5z" />
    <glyph glyph-name="uni202F" unicode="&#x202f;" horiz-adv-x="396" 
 />
    <glyph glyph-name="guilsinglleft" unicode="&#x2039;" horiz-adv-x="501" 
d="M348 776h33q12 0 15.5 -11t-5.5 -26l-192 -313l192 -322q9 -15 5.5 -25.5t-15.5 -10.5h-33q-20 0 -33 18l-221 322q-12 15 0 34l221 316q13 18 33 18z" />
    <glyph glyph-name="guilsinglright" unicode="&#x203a;" horiz-adv-x="501" 
d="M121 776h33q19 0 32 -18l222 -316q12 -19 0 -34l-222 -322q-13 -18 -32 -18h-33q-12 0 -15.5 10.5t5.5 25.5l192 322l-192 313q-9 15 -5.5 26t15.5 11z" />
    <glyph glyph-name="uni205F" unicode="&#x205f;" horiz-adv-x="495" 
 />
    <glyph glyph-name="Euro" unicode="&#x20ac;" horiz-adv-x="1505" 
d="M66 530q-25 0 -25 27v10q0 11 7.5 19t17.5 8h96q-10 62 -10 111t2 67h-88q-10 0 -17.5 9t-7.5 20v10q0 11 7.5 19t17.5 8h96q28 173 131 314t261 221.5t339 80.5q293 0 498 -190q19 -20 2 -37l-31 -31q-20 -20 -41 0q-175 166 -419 166t-420 -149.5t-216 -374.5h662
q26 0 26 -31v-8q0 -27 -26 -27h-672q-2 -18 -2 -74t10 -104h584q24 0 24 -31v-8q0 -25 -24 -25h-567q59 -202 227 -330t385 -128q138 0 232 42t200 130q20 17 33 4l35 -35q19 -19 0 -35q-207 -198 -500 -198q-257 0 -456 154.5t-261 395.5h-110z" />
    <glyph glyph-name="trademark" unicode="&#x2122;" horiz-adv-x="1476" 
d="M784 1454q14 0 21 -20l176 -502h2l178 502q7 20 21 20h10q17 0 22 -20l140 -596q7 -31 -21 -31h-22q-19 0 -25 20l-108 445h-2l-164 -459q-5 -16 -19 -16h-20q-14 0 -19 16l-166 459h-2l-106 -445q-6 -20 -25 -20h-22q-28 0 -21 31l140 596q5 20 22 20h10zM100 1397v10
q0 11 8 19t19 8h426q11 0 19 -8t8 -19v-14q0 -12 -8 -19.5t-19 -7.5h-176v-532q0 -10 -8.5 -18.5t-18.5 -8.5h-20q-10 0 -17.5 7.5t-7.5 19.5v532h-178q-12 0 -19.5 9.5t-7.5 21.5z" />
    <glyph glyph-name="uniE000" unicode="&#xe000;" horiz-adv-x="819" 
d="M0 0v819h819v-819h-819z" />
    <glyph glyph-name="uniFB03" unicode="&#xfb03;" horiz-adv-x="1609" 
d="M295 819h465v273q0 87 33 165q-31 33 -97 64t-137 31q-121 0 -192.5 -75t-71.5 -226v-232zM82 739q-27 0 -27 27v27q0 10 8 18t19 8h125v232q0 195 101 289t251 94t275 -99q92 119 260 119q100 0 180.5 -37t120.5 -74q14 -10 2 -30l-23 -33q-11 -17 -33 -2
q-13 13 -83 53.5t-171 40.5t-170 -75.5t-69 -206.5v-271h579q11 0 19 -8t8 -18v-766q0 -12 -9 -19.5t-20 -7.5h-34q-11 0 -19 8t-8 19v712h-516v-712q0 -12 -9 -19.5t-20 -7.5h-33q-10 0 -18 8t-8 19v712h-465v-712q0 -12 -9 -19.5t-20 -7.5h-33q-10 0 -18 8t-8 19v712h-125
z" />
    <glyph glyph-name="uniFB04" unicode="&#xfb04;" horiz-adv-x="1617" 
d="M297 819h463v283q0 88 28 155q-30 33 -94 64t-131 31q-126 0 -196 -75t-70 -230v-228zM84 739q-27 0 -27 27v27q0 10 8 18t19 8h123v232q0 192 99.5 287.5t249.5 95.5t273 -97q91 117 261 117t290 -111l9 66q4 25 34 25h13q10 0 18 -8t8 -19v-1380q0 -11 -8 -19t-20 -8
h-30t-30 27v1212q-48 52 -88 73t-79 37.5t-97 16.5q-108 0 -185 -64t-77 -200v-283h303q27 0 27 -24v-31q0 -25 -27 -25h-303v-712q0 -12 -9 -19.5t-20 -7.5h-33q-10 0 -18 8t-8 19v712h-463l-2 -712q0 -12 -9 -19.5t-20 -7.5h-33q-10 0 -18 8t-8 19v712h-123z" />
    </font>
</defs>
</svg>
