<?xml version="1.0" encoding="utf-8"?>
<!-- Generator: Adobe Illustrator 19.1.0, SVG Export Plug-In . SVG Version: 6.00 Build 0)  -->
<svg version="1.1" id="Calque_1" xmlns="http://www.w3.org/2000/svg" xmlns:xlink="http://www.w3.org/1999/xlink" x="0px" y="0px"
	 viewBox="0 0 612.8 605.1" style="enable-background:new 0 0 612.8 605.1;" xml:space="preserve">
<style type="text/css">
	.st0{fill:#FFFFFF;}
</style>
<path class="st0" d="M311.1,15.7C153.6,15.7,26,143.4,26,300.8s127.6,285.1,285.1,285.1s285.1-127.6,285.1-285.1
	S468.5,15.7,311.1,15.7z M302.3,465.6c-10.1,0-18.3-8.2-18.3-18.3c0-10.5,8.2-18.3,18.3-18.3c10.5,0,18.8,7.8,18.8,18.3
	C321.1,457.3,312.9,465.6,302.3,465.6z M312.9,303.6v26.1c0,4.1-1.8,6.4-5.9,6.4h-8.7c-4.1,0-5.5-3.2-5.5-6.4v-26.5
	c0-44.4,76.4-54.9,76.4-101.1c0-23.8-20.1-47.6-56.3-47.6c-42.1,0-61.3,27.5-65.9,32c-1.8,1.8-3.7,3.2-7.8,0.5l-4.6-3.2
	c-4.6-3.2-3.2-6-1.4-8.7c0,0,25.2-38.9,81-38.9c46.2,0,75.5,27,75.5,64.5C389.7,261,312.9,271.1,312.9,303.6z"/>
</svg>
