<?xml version="1.0" encoding="utf-8"?>
<!-- Generator: Adobe Illustrator 19.1.0, SVG Export Plug-In . SVG Version: 6.00 Build 0)  -->
<svg version="1.1" id="Calque_1" xmlns="http://www.w3.org/2000/svg" xmlns:xlink="http://www.w3.org/1999/xlink" x="0px" y="0px"
	 viewBox="-197.3 206.4 96.7 88.3" style="enable-background:new -197.3 206.4 96.7 88.3;" xml:space="preserve">
<style type="text/css">
	.st0{fill:none;stroke:#00EF7A;stroke-width:2;stroke-miterlimit:10;}
</style>
<g>
	<path class="st0" d="M-172.1,207.4c6-0.1,11,1.8,15.5,5.1c2.9,2.2,5.2,4.9,7.2,7.9c0.4,0.6,0.5,0.6,0.9,0
		c3.1-4.8,7.1-8.6,12.3-10.9c1.7-0.8,3.6-1.4,5.4-1.6c2.6-0.3,5.2-0.5,7.7-0.3c2.6,0.2,5,1.1,7.3,2.4c3.2,1.7,5.9,4,8.1,6.7
		c2.2,2.6,3.8,5.6,5,8.8c1.2,3.3,1.3,6.6,1,10c-0.4,4.6-1.7,9.1-3.9,13.2c-2.1,4-4.7,7.7-7.8,10.9c-4.8,5-9.6,9.9-14.6,14.8
		c-3.6,3.5-7.4,6.9-11.1,10.4c-3.1,2.9-6.2,5.7-9.3,8.6c-0.4,0.4-0.6,0.4-1,0c-2.7-2.5-5.3-5.1-8-7.6c-3.8-3.6-7.7-7.1-11.5-10.8
		c-4.9-4.7-9.8-9.4-14.5-14.3c-3.2-3.4-6.2-7.1-8.3-11.3c-1.1-2.2-2.1-4.6-3-7c-1.4-3.9-1.7-7.9-1.5-12c0.2-3,1.1-5.8,2.4-8.4
		c1.7-3.5,4.1-6.5,7.1-9c2.3-2,4.9-3.5,7.8-4.5C-176.6,207.7-174.2,207.3-172.1,207.4z"/>
</g>
</svg>
