<svg id="6b8c8394-e1bc-4e36-afbb-010e959618ba" data-name="Calque 1" xmlns="http://www.w3.org/2000/svg" viewBox="0 0 623.95 103.39"><title>TEMPOLOGO</title><path d="M81.36,31.53H48.59v89.69H35V31.53H2.12V20H81.36V31.53Z" transform="translate(-2.12 -18.89)"/><path d="M365.4,20v101.2h-12V46.86q0-1.48.11-3.18t0.25-3.46L319,103.5a5.26,5.26,0,0,1-4.94,3.18h-2a5.26,5.26,0,0,1-4.94-3.18L271.69,39.94a61.79,61.79,0,0,1,.42,6.92v74.37h-12V20h10.1a8.8,8.8,0,0,1,2.82.35,4.07,4.07,0,0,1,1.91,2l35,62.29q0.85,1.7,1.66,3.53t1.52,3.74q0.7-1.91,1.48-3.78a38.27,38.27,0,0,1,1.69-3.57l34.32-62.22a3.76,3.76,0,0,1,1.87-2A9.14,9.14,0,0,1,355.3,20h10.1Z" transform="translate(-2.12 -18.89)"/><path d="M449.37,20a56.05,56.05,0,0,1,16.7,2.22,32.09,32.09,0,0,1,11.76,6.32,25.49,25.49,0,0,1,7,9.89,34.82,34.82,0,0,1,2.29,12.92,32.94,32.94,0,0,1-2.47,12.92,27.79,27.79,0,0,1-7.24,10.1A33.66,33.66,0,0,1,465.58,81a50.74,50.74,0,0,1-16.21,2.37H433.13v37.85H419.5V20h29.87Zm0,52.47a31.56,31.56,0,0,0,10.35-1.55,21.57,21.57,0,0,0,7.56-4.34,17.85,17.85,0,0,0,4.63-6.67,22.82,22.82,0,0,0,1.55-8.55q0-9.68-6-15.11t-18.12-5.44H433.13V72.49h16.24Z" transform="translate(-2.12 -18.89)"/><path d="M626.07,70.66a58.41,58.41,0,0,1-3.6,20.87,47.78,47.78,0,0,1-10.17,16.35,45.45,45.45,0,0,1-15.78,10.63,56.73,56.73,0,0,1-40.71,0A45.51,45.51,0,0,1,540,107.88a47.78,47.78,0,0,1-10.17-16.35,58.41,58.41,0,0,1-3.6-20.87,58.42,58.42,0,0,1,3.6-20.87A48.18,48.18,0,0,1,540,33.4,45.69,45.69,0,0,1,555.8,22.7a56.24,56.24,0,0,1,40.71,0A45.63,45.63,0,0,1,612.3,33.4a48.18,48.18,0,0,1,10.17,16.38A58.42,58.42,0,0,1,626.07,70.66Zm-14.05,0a51.42,51.42,0,0,0-2.54-16.74,35.41,35.41,0,0,0-7.2-12.54A31.27,31.27,0,0,0,591,33.51a41.11,41.11,0,0,0-29.59,0A31.58,31.58,0,0,0,550,41.38a35.11,35.11,0,0,0-7.24,12.54,51.45,51.45,0,0,0-2.54,16.74,51.13,51.13,0,0,0,2.54,16.7A35.15,35.15,0,0,0,550,99.86a31.18,31.18,0,0,0,11.33,7.84,41.62,41.62,0,0,0,29.59,0,30.88,30.88,0,0,0,11.3-7.84,35.45,35.45,0,0,0,7.2-12.5A51.1,51.1,0,0,0,612,70.66Z" transform="translate(-2.12 -18.89)"/><path d="M139.78,75.94V65.2h62.36V75.94H139.78Zm13.7-44.35h-13.7V20.43h62.36V31.58H153.48" transform="translate(-2.12 -18.89)"/><polyline points="151.37 101.71 137.66 101.71 137.66 90.55 200.03 90.55 200.03 101.71 151.37 101.71"/></svg>